<svg xmlns="http://www.w3.org/2000/svg" xmlns:xlink="http://www.w3.org/1999/xlink" contentStyleType="text/css" data-diagram-type="CLASS" height="1512px" preserveAspectRatio="none" style="width:4789px;height:1512px;background:#FFFFFF;" version="1.1" viewBox="0 0 4789 1512" width="4789px" zoomAndPan="magnify"><defs/><g><!--cluster com--><g class="cluster" data-entity="com" data-source-line="1" data-uid="ent0003" id="cluster_com"><path d="M8.5,407.0137 L38.2861,407.0137 A3.75,3.75 0 0 1 40.7861,409.5137 L47.7861,431.6348 L4779.5,431.6348 A2.5,2.5 0 0 1 4782,434.1348 L4782,1502.5137 A2.5,2.5 0 0 1 4779.5,1505.0137 L8.5,1505.0137 A2.5,2.5 0 0 1 6,1502.5137 L6,409.5137 A2.5,2.5 0 0 1 8.5,407.0137" fill="none" style="stroke:#000000;stroke-width:1.5;"/><line style="stroke:#000000;stroke-width:1.5;" x1="6" x2="47.7861" y1="431.6348" y2="431.6348"/><text fill="#000000" font-family="sans-serif" font-size="14" font-weight="bold" lengthAdjust="spacing" textLength="28.7861" x="10" y="424.1211">com</text></g><!--cluster example--><g class="cluster" data-entity="example" data-source-line="1" data-uid="ent0004" id="cluster_example"><path d="M32.5,452.0137 L89.5342,452.0137 A3.75,3.75 0 0 1 92.0342,454.5137 L99.0342,476.6348 L4755.5,476.6348 A2.5,2.5 0 0 1 4758,479.1348 L4758,1478.5137 A2.5,2.5 0 0 1 4755.5,1481.0137 L32.5,1481.0137 A2.5,2.5 0 0 1 30,1478.5137 L30,454.5137 A2.5,2.5 0 0 1 32.5,452.0137" fill="none" style="stroke:#000000;stroke-width:1.5;"/><line style="stroke:#000000;stroke-width:1.5;" x1="30" x2="99.0342" y1="476.6348" y2="476.6348"/><text fill="#000000" font-family="sans-serif" font-size="14" font-weight="bold" lengthAdjust="spacing" textLength="56.0342" x="34" y="469.1211">example</text></g><!--cluster EMS--><g class="cluster" data-entity="EMS" data-source-line="1" data-uid="ent0005" id="cluster_EMS"><path d="M56.5,497.0137 L87.8379,497.0137 A3.75,3.75 0 0 1 90.3379,499.5137 L97.3379,521.6348 L4731.5,521.6348 A2.5,2.5 0 0 1 4734,524.1348 L4734,1454.5137 A2.5,2.5 0 0 1 4731.5,1457.0137 L56.5,1457.0137 A2.5,2.5 0 0 1 54,1454.5137 L54,499.5137 A2.5,2.5 0 0 1 56.5,497.0137" fill="none" style="stroke:#000000;stroke-width:1.5;"/><line style="stroke:#000000;stroke-width:1.5;" x1="54" x2="97.3379" y1="521.6348" y2="521.6348"/><text fill="#000000" font-family="sans-serif" font-size="14" font-weight="bold" lengthAdjust="spacing" textLength="30.3379" x="58" y="514.1211">EMS</text></g><!--cluster service--><g class="cluster" data-entity="service" data-source-line="1" data-uid="ent0006" id="cluster_service"><path d="M3954.5,615.0137 L4003.7686,615.0137 A3.75,3.75 0 0 1 4006.2686,617.5137 L4013.2686,639.6348 L4707.5,639.6348 A2.5,2.5 0 0 1 4710,642.1348 L4710,1430.5137 A2.5,2.5 0 0 1 4707.5,1433.0137 L3954.5,1433.0137 A2.5,2.5 0 0 1 3952,1430.5137 L3952,617.5137 A2.5,2.5 0 0 1 3954.5,615.0137" fill="none" style="stroke:#000000;stroke-width:1.5;"/><line style="stroke:#000000;stroke-width:1.5;" x1="3952" x2="4013.2686" y1="639.6348" y2="639.6348"/><text fill="#000000" font-family="sans-serif" font-size="14" font-weight="bold" lengthAdjust="spacing" textLength="48.2686" x="3956" y="632.1211">service</text></g><!--cluster impl--><g class="cluster" data-entity="impl" data-source-line="1" data-uid="ent0007" id="cluster_impl"><path d="M3978.5,1010.0137 L4008.2793,1010.0137 A3.75,3.75 0 0 1 4010.7793,1012.5137 L4017.7793,1034.6348 L4683.5,1034.6348 A2.5,2.5 0 0 1 4686,1037.1348 L4686,1406.5137 A2.5,2.5 0 0 1 4683.5,1409.0137 L3978.5,1409.0137 A2.5,2.5 0 0 1 3976,1406.5137 L3976,1012.5137 A2.5,2.5 0 0 1 3978.5,1010.0137" fill="none" style="stroke:#000000;stroke-width:1.5;"/><line style="stroke:#000000;stroke-width:1.5;" x1="3976" x2="4017.7793" y1="1034.6348" y2="1034.6348"/><text fill="#000000" font-family="sans-serif" font-size="14" font-weight="bold" lengthAdjust="spacing" textLength="28.7793" x="3980" y="1027.1211">impl</text></g><!--cluster repository--><g class="cluster" data-entity="repository" data-source-line="21" data-uid="ent0009" id="cluster_repository"><path d="M3488.5,699.0137 L3557.9619,699.0137 A3.75,3.75 0 0 1 3560.4619,701.5137 L3567.4619,723.6348 L3925.5,723.6348 A2.5,2.5 0 0 1 3928,726.1348 L3928,871.5137 A2.5,2.5 0 0 1 3925.5,874.0137 L3488.5,874.0137 A2.5,2.5 0 0 1 3486,871.5137 L3486,701.5137 A2.5,2.5 0 0 1 3488.5,699.0137" fill="none" style="stroke:#000000;stroke-width:1.5;"/><line style="stroke:#000000;stroke-width:1.5;" x1="3486" x2="3567.4619" y1="723.6348" y2="723.6348"/><text fill="#000000" font-family="sans-serif" font-size="14" font-weight="bold" lengthAdjust="spacing" textLength="68.4619" x="3490" y="716.1211">repository</text></g><!--cluster controller--><g class="cluster" data-entity="controller" data-source-line="28" data-uid="ent0011" id="cluster_controller"><path d="M2640.5,596.5137 L2706.0654,596.5137 A3.75,3.75 0 0 1 2708.5654,599.0137 L2715.5654,621.1348 L3459.5,621.1348 A2.5,2.5 0 0 1 3462,623.6348 L3462,974.0137 A2.5,2.5 0 0 1 3459.5,976.5137 L2640.5,976.5137 A2.5,2.5 0 0 1 2638,974.0137 L2638,599.0137 A2.5,2.5 0 0 1 2640.5,596.5137" fill="none" style="stroke:#000000;stroke-width:1.5;"/><line style="stroke:#000000;stroke-width:1.5;" x1="2638" x2="2715.5654" y1="621.1348" y2="621.1348"/><text fill="#000000" font-family="sans-serif" font-size="14" font-weight="bold" lengthAdjust="spacing" textLength="64.5654" x="2642" y="613.6211">controller</text></g><!--cluster model--><g class="cluster" data-entity="model" data-source-line="47" data-uid="ent0013" id="cluster_model"><path d="M1833.5,542.0137 L1875.7275,542.0137 A3.75,3.75 0 0 1 1878.2275,544.5137 L1885.2275,566.6348 L2611.5,566.6348 A2.5,2.5 0 0 1 2614,569.1348 L2614,1402.5137 A2.5,2.5 0 0 1 2611.5,1405.0137 L1833.5,1405.0137 A2.5,2.5 0 0 1 1831,1402.5137 L1831,544.5137 A2.5,2.5 0 0 1 1833.5,542.0137" fill="none" style="stroke:#000000;stroke-width:1.5;"/><line style="stroke:#000000;stroke-width:1.5;" x1="1831" x2="1885.2275" y1="566.6348" y2="566.6348"/><text fill="#000000" font-family="sans-serif" font-size="14" font-weight="bold" lengthAdjust="spacing" textLength="41.2275" x="1835" y="559.1211">model</text></g><!--cluster dto--><g class="cluster" data-entity="dto" data-source-line="47" data-uid="ent0014" id="cluster_dto"><path d="M2107.5,587.0137 L2130.2656,587.0137 A3.75,3.75 0 0 1 2132.7656,589.5137 L2139.7656,611.6348 L2587.5,611.6348 A2.5,2.5 0 0 1 2590,614.1348 L2590,1378.5137 A2.5,2.5 0 0 1 2587.5,1381.0137 L2107.5,1381.0137 A2.5,2.5 0 0 1 2105,1378.5137 L2105,589.5137 A2.5,2.5 0 0 1 2107.5,587.0137" fill="none" style="stroke:#000000;stroke-width:1.5;"/><line style="stroke:#000000;stroke-width:1.5;" x1="2105" x2="2139.7656" y1="611.6348" y2="611.6348"/><text fill="#000000" font-family="sans-serif" font-size="14" font-weight="bold" lengthAdjust="spacing" textLength="21.7656" x="2109" y="604.1211">dto</text></g><!--cluster entity--><g class="cluster" data-entity="entity" data-source-line="114" data-uid="ent0024" id="cluster_entity"><path d="M1857.5,587.0137 L1895.8379,587.0137 A3.75,3.75 0 0 1 1898.3379,589.5137 L1905.3379,611.6348 L2078.5,611.6348 A2.5,2.5 0 0 1 2081,614.1348 L2081,983.5137 A2.5,2.5 0 0 1 2078.5,986.0137 L1857.5,986.0137 A2.5,2.5 0 0 1 1855,983.5137 L1855,589.5137 A2.5,2.5 0 0 1 1857.5,587.0137" fill="none" style="stroke:#000000;stroke-width:1.5;"/><line style="stroke:#000000;stroke-width:1.5;" x1="1855" x2="1905.3379" y1="611.6348" y2="611.6348"/><text fill="#000000" font-family="sans-serif" font-size="14" font-weight="bold" lengthAdjust="spacing" textLength="37.3379" x="1859" y="604.1211">entity</text></g><!--cluster config--><g class="cluster" data-entity="config" data-source-line="59" data-uid="ent0016" id="cluster_config"><path d="M722.5,661.5137 L765.4932,661.5137 A3.75,3.75 0 0 1 767.9932,664.0137 L774.9932,686.1348 L1804.5,686.1348 A2.5,2.5 0 0 1 1807,688.6348 L1807,1257.5137 A2.5,2.5 0 0 1 1804.5,1260.0137 L722.5,1260.0137 A2.5,2.5 0 0 1 720,1257.5137 L720,664.0137 A2.5,2.5 0 0 1 722.5,661.5137" fill="none" style="stroke:#000000;stroke-width:1.5;"/><line style="stroke:#000000;stroke-width:1.5;" x1="720" x2="774.9932" y1="686.1348" y2="686.1348"/><text fill="#000000" font-family="sans-serif" font-size="14" font-weight="bold" lengthAdjust="spacing" textLength="41.9932" x="724" y="678.6211">config</text></g><!--cluster exceptions--><g class="cluster" data-entity="exceptions" data-source-line="96" data-uid="ent0021" id="cluster_exceptions"><path d="M228.5,736.0137 L302.6377,736.0137 A3.75,3.75 0 0 1 305.1377,738.5137 L312.1377,760.6348 L693.5,760.6348 A2.5,2.5 0 0 1 696,763.1348 L696,1257.5137 A2.5,2.5 0 0 1 693.5,1260.0137 L228.5,1260.0137 A2.5,2.5 0 0 1 226,1257.5137 L226,738.5137 A2.5,2.5 0 0 1 228.5,736.0137" fill="none" style="stroke:#000000;stroke-width:1.5;"/><line style="stroke:#000000;stroke-width:1.5;" x1="226" x2="312.1377" y1="760.6348" y2="760.6348"/><text fill="#000000" font-family="sans-serif" font-size="14" font-weight="bold" lengthAdjust="spacing" textLength="73.1377" x="230" y="753.1211">exceptions</text></g><!--cluster org--><g class="cluster" data-entity="org" data-source-line="160" data-uid="ent0030" id="cluster_org"><path d="M3536.5,6.0137 L3560.0518,6.0137 A3.75,3.75 0 0 1 3562.5518,8.5137 L3569.5518,30.6348 L3877.5,30.6348 A2.5,2.5 0 0 1 3880,33.1348 L3880,380.5137 A2.5,2.5 0 0 1 3877.5,383.0137 L3536.5,383.0137 A2.5,2.5 0 0 1 3534,380.5137 L3534,8.5137 A2.5,2.5 0 0 1 3536.5,6.0137" fill="none" style="stroke:#000000;stroke-width:1.5;"/><line style="stroke:#000000;stroke-width:1.5;" x1="3534" x2="3569.5518" y1="30.6348" y2="30.6348"/><text fill="#000000" font-family="sans-serif" font-size="14" font-weight="bold" lengthAdjust="spacing" textLength="22.5518" x="3538" y="23.1211">org</text></g><!--cluster springframework--><g class="cluster" data-entity="springframework" data-source-line="160" data-uid="ent0031" id="cluster_springframework"><path d="M3560.5,51.0137 L3675.0859,51.0137 A3.75,3.75 0 0 1 3677.5859,53.5137 L3684.5859,75.6348 L3853.5,75.6348 A2.5,2.5 0 0 1 3856,78.1348 L3856,356.5137 A2.5,2.5 0 0 1 3853.5,359.0137 L3560.5,359.0137 A2.5,2.5 0 0 1 3558,356.5137 L3558,53.5137 A2.5,2.5 0 0 1 3560.5,51.0137" fill="none" style="stroke:#000000;stroke-width:1.5;"/><line style="stroke:#000000;stroke-width:1.5;" x1="3558" x2="3684.5859" y1="75.6348" y2="75.6348"/><text fill="#000000" font-family="sans-serif" font-size="14" font-weight="bold" lengthAdjust="spacing" textLength="113.5859" x="3562" y="68.1211">springframework</text></g><!--cluster data--><g class="cluster" data-entity="data" data-source-line="160" data-uid="ent0032" id="cluster_data"><path d="M3584.5,96.0137 L3614.2861,96.0137 A3.75,3.75 0 0 1 3616.7861,98.5137 L3623.7861,120.6348 L3829.5,120.6348 A2.5,2.5 0 0 1 3832,123.1348 L3832,332.5137 A2.5,2.5 0 0 1 3829.5,335.0137 L3584.5,335.0137 A2.5,2.5 0 0 1 3582,332.5137 L3582,98.5137 A2.5,2.5 0 0 1 3584.5,96.0137" fill="none" style="stroke:#000000;stroke-width:1.5;"/><line style="stroke:#000000;stroke-width:1.5;" x1="3582" x2="3623.7861" y1="120.6348" y2="120.6348"/><text fill="#000000" font-family="sans-serif" font-size="14" font-weight="bold" lengthAdjust="spacing" textLength="28.7861" x="3586" y="113.1211">data</text></g><!--cluster jpa--><g class="cluster" data-entity="jpa" data-source-line="160" data-uid="ent0033" id="cluster_jpa"><path d="M3608.5,141.0137 L3629.7275,141.0137 A3.75,3.75 0 0 1 3632.2275,143.5137 L3639.2275,165.6348 L3805.5,165.6348 A2.5,2.5 0 0 1 3808,168.1348 L3808,308.5137 A2.5,2.5 0 0 1 3805.5,311.0137 L3608.5,311.0137 A2.5,2.5 0 0 1 3606,308.5137 L3606,143.5137 A2.5,2.5 0 0 1 3608.5,141.0137" fill="none" style="stroke:#000000;stroke-width:1.5;"/><line style="stroke:#000000;stroke-width:1.5;" x1="3606" x2="3639.2275" y1="165.6348" y2="165.6348"/><text fill="#000000" font-family="sans-serif" font-size="14" font-weight="bold" lengthAdjust="spacing" textLength="20.2275" x="3610" y="158.1211">jpa</text></g><!--cluster repository--><g class="cluster" data-entity="repository" data-source-line="160" data-uid="ent0034" id="cluster_repository"><path d="M3632.5,186.0137 L3701.9619,186.0137 A3.75,3.75 0 0 1 3704.4619,188.5137 L3711.4619,210.6348 L3781.5,210.6348 A2.5,2.5 0 0 1 3784,213.1348 L3784,284.5137 A2.5,2.5 0 0 1 3781.5,287.0137 L3632.5,287.0137 A2.5,2.5 0 0 1 3630,284.5137 L3630,188.5137 A2.5,2.5 0 0 1 3632.5,186.0137" fill="none" style="stroke:#000000;stroke-width:1.5;"/><line style="stroke:#000000;stroke-width:1.5;" x1="3630" x2="3711.4619" y1="210.6348" y2="210.6348"/><text fill="#000000" font-family="sans-serif" font-size="14" font-weight="bold" lengthAdjust="spacing" textLength="68.4619" x="3634" y="203.1211">repository</text></g><!--class EmsApplication--><g class="entity" data-entity="EmsApplication" data-source-line="153" data-uid="ent0027" id="entity_EmsApplication"><rect fill="#F1F1F1" height="66.6211" rx="2.5" ry="2.5" style="stroke:#181818;stroke-width:0.5;" width="139.5928" x="70" y="763.5137"/><ellipse cx="89.9966" cy="779.5137" fill="#ADD1B2" rx="11" ry="11" style="stroke:#181818;stroke-width:1;"/><path d="M92.7622,775.3887 Q92.9185,775.1699 93.106,775.0605 Q93.2935,774.9512 93.5122,774.9512 Q93.8872,774.9512 94.1216,775.2168 Q94.356,775.4668 94.356,776.0762 L94.356,777.5293 Q94.356,778.1387 94.1216,778.4043 Q93.8872,778.6699 93.5122,778.6699 Q93.1685,778.6699 92.9653,778.4668 Q92.7622,778.2793 92.6528,777.7637 Q92.606,777.4043 92.4185,777.2168 Q92.0903,776.8418 91.481,776.623 Q90.8716,776.4043 90.2466,776.4043 Q89.481,776.4043 88.8403,776.7324 Q88.2153,777.0605 87.7153,777.8105 Q87.231,778.5605 87.231,779.5918 L87.231,780.6855 Q87.231,781.9199 88.1216,782.748 Q89.0122,783.5605 90.606,783.5605 Q91.5435,783.5605 92.1997,783.3105 Q92.5903,783.1543 93.0122,782.7168 Q93.2778,782.4512 93.4185,782.373 Q93.5747,782.2949 93.7778,782.2949 Q94.106,782.2949 94.356,782.5605 Q94.6216,782.8105 94.6216,783.1543 Q94.6216,783.498 94.2778,783.9043 Q93.7778,784.4824 92.981,784.8105 Q91.9028,785.2637 90.606,785.2637 Q89.0903,785.2637 87.8872,784.6387 Q86.9028,784.1387 86.2153,783.0762 Q85.5278,781.998 85.5278,780.7168 L85.5278,779.5605 Q85.5278,778.2324 86.1372,777.0918 Q86.7622,775.9355 87.856,775.3262 Q88.9497,774.7012 90.1841,774.7012 Q90.9185,774.7012 91.5591,774.873 Q92.2153,775.0293 92.7622,775.3887 Z " fill="#000000"/><text fill="#000000" font-family="sans-serif" font-size="14" lengthAdjust="spacing" textLength="96.4893" x="105.1069" y="785.3105">EmsApplication</text><line style="stroke:#181818;stroke-width:0.5;" x1="71" x2="208.5928" y1="795.5137" y2="795.5137"/><line style="stroke:#181818;stroke-width:0.5;" x1="71" x2="208.5928" y1="803.5137" y2="803.5137"/><ellipse cx="81" cy="818.3242" fill="#84BE84" rx="3" ry="3" style="stroke:#038048;stroke-width:1;"/><text fill="#000000" font-family="sans-serif" font-size="14" lengthAdjust="spacing" text-decoration="underline" textLength="113.5928" x="90" y="822.6211">void main(String[])</text></g><!--class EmployeeService--><g class="entity" data-entity="EmployeeService" data-source-line="98" data-uid="ent0022" id="entity_EmployeeService"><rect fill="#F1F1F1" height="290.0742" rx="2.5" ry="2.5" style="stroke:#181818;stroke-width:0.5;" width="676.5967" x="3992.5" y="652.0137"/><ellipse cx="4272.0796" cy="668.0137" fill="#B4A7E5" rx="11" ry="11" style="stroke:#181818;stroke-width:1;"/><path d="M4273.0327,664.6543 L4273.0327,671.3105 L4274.7515,671.3105 Q4275.3608,671.3105 4275.6265,671.5449 Q4275.8921,671.7793 4275.8921,672.1699 Q4275.8921,672.5449 4275.6265,672.7793 Q4275.3608,673.0137 4274.7515,673.0137 L4269.6108,673.0137 Q4269.0015,673.0137 4268.7358,672.7793 Q4268.4702,672.5449 4268.4702,672.1543 Q4268.4702,671.7793 4268.7358,671.5449 Q4269.0015,671.3105 4269.6108,671.3105 L4271.3296,671.3105 L4271.3296,664.6543 L4269.6108,664.6543 Q4269.0015,664.6543 4268.7358,664.4199 Q4268.4702,664.1855 4268.4702,663.7949 Q4268.4702,663.4199 4268.7358,663.1855 Q4269.0015,662.9512 4269.6108,662.9512 L4274.7515,662.9512 Q4275.3608,662.9512 4275.6265,663.1855 Q4275.8921,663.4199 4275.8921,663.7949 Q4275.8921,664.1855 4275.6265,664.4199 Q4275.3608,664.6543 4274.7515,664.6543 L4273.0327,664.6543 Z " fill="#000000"/><text fill="#000000" font-family="sans-serif" font-size="14" font-style="italic" lengthAdjust="spacing" textLength="108.9375" x="4292.5796" y="673.8105">EmployeeService</text><line style="stroke:#181818;stroke-width:0.5;" x1="3993.5" x2="4668.0967" y1="684.0137" y2="684.0137"/><line style="stroke:#181818;stroke-width:0.5;" x1="3993.5" x2="4668.0967" y1="692.0137" y2="692.0137"/><polygon fill="#4177AF" points="4003.5,702.8242,3999.5,708.8242,4007.5,708.8242" style="stroke:#1963A0;stroke-width:1;"/><text fill="#000000" font-family="sans-serif" font-size="14" lengthAdjust="spacing" textLength="382.0947" x="4012.5" y="711.1211">EmployeeResponseDto addEmployee(EmployeeRequestDto)</text><polygon fill="#4177AF" points="4003.5,721.4453,3999.5,727.4453,4007.5,727.4453" style="stroke:#1963A0;stroke-width:1;"/><text fill="#000000" font-family="sans-serif" font-size="14" lengthAdjust="spacing" textLength="465.3701" x="4012.5" y="729.7422">List&lt;EmployeeResponseDto&gt; addEmployees(List&lt;EmployeeRequestDto&gt;)</text><polygon fill="#4177AF" points="4003.5,740.0664,3999.5,746.0664,4007.5,746.0664" style="stroke:#1963A0;stroke-width:1;"/><text fill="#000000" font-family="sans-serif" font-size="14" lengthAdjust="spacing" textLength="473.1563" x="4012.5" y="748.3633">List&lt;EmployeeResponseDto&gt; addEmployees1(List&lt;EmployeeRequestDto&gt;)</text><polygon fill="#4177AF" points="4003.5,758.6875,3999.5,764.6875,4007.5,764.6875" style="stroke:#1963A0;stroke-width:1;"/><text fill="#000000" font-family="sans-serif" font-size="14" lengthAdjust="spacing" textLength="301.1709" x="4012.5" y="766.9844">EmployeeResponseDto getEmployeeById(Long)</text><polygon fill="#4177AF" points="4003.5,777.3086,3999.5,783.3086,4007.5,783.3086" style="stroke:#1963A0;stroke-width:1;"/><text fill="#000000" font-family="sans-serif" font-size="14" lengthAdjust="spacing" textLength="302.709" x="4012.5" y="785.6055">List&lt;EmployeeResponseDto&gt; getAllEmployees()</text><polygon fill="#4177AF" points="4003.5,795.9297,3999.5,801.9297,4007.5,801.9297" style="stroke:#1963A0;stroke-width:1;"/><text fill="#000000" font-family="sans-serif" font-size="14" lengthAdjust="spacing" textLength="323.7295" x="4012.5" y="804.2266">EmployeeResponseDto searchEmployeeById(Long)</text><polygon fill="#4177AF" points="4003.5,814.5508,3999.5,820.5508,4007.5,820.5508" style="stroke:#1963A0;stroke-width:1;"/><text fill="#000000" font-family="sans-serif" font-size="14" lengthAdjust="spacing" textLength="474.6807" x="4012.5" y="822.8477">List&lt;EmployeeResponseDto&gt; searchEmployees(String,Integer,String,String)</text><polygon fill="#4177AF" points="4003.5,833.1719,3999.5,839.1719,4007.5,839.1719" style="stroke:#1963A0;stroke-width:1;"/><text fill="#000000" font-family="sans-serif" font-size="14" lengthAdjust="spacing" textLength="464.6045" x="4012.5" y="841.4688">EmployeeResponseDto updateEmployeeById(EmployeeRequestDto,Long)</text><polygon fill="#4177AF" points="4003.5,851.793,3999.5,857.793,4007.5,857.793" style="stroke:#1963A0;stroke-width:1;"/><text fill="#000000" font-family="sans-serif" font-size="14" lengthAdjust="spacing" textLength="533.8389" x="4012.5" y="860.0898">List&lt;EmployeeResponseDto&gt; updateEmployeeByName(EmployeeRequestDto,String)</text><polygon fill="#4177AF" points="4003.5,870.4141,3999.5,876.4141,4007.5,876.4141" style="stroke:#1963A0;stroke-width:1;"/><text fill="#000000" font-family="sans-serif" font-size="14" lengthAdjust="spacing" textLength="198.4541" x="4012.5" y="878.7109">void deleteEmployeeById(Long)</text><polygon fill="#4177AF" points="4003.5,889.0352,3999.5,895.0352,4007.5,895.0352" style="stroke:#1963A0;stroke-width:1;"/><text fill="#000000" font-family="sans-serif" font-size="14" lengthAdjust="spacing" textLength="466.9492" x="4012.5" y="897.332">Page&lt;EmployeeResponseDto&gt; getAllEmployeesWithPagination(Pageable)</text><polygon fill="#4177AF" points="4003.5,907.6563,3999.5,913.6563,4007.5,913.6563" style="stroke:#1963A0;stroke-width:1;"/><text fill="#000000" font-family="sans-serif" font-size="14" lengthAdjust="spacing" textLength="642.8105" x="4012.5" y="915.9531">Page&lt;EmployeeResponseDto&gt; searchEmployeesWithPagination(String,Integer,String,String,Pageable)</text><polygon fill="#4177AF" points="4003.5,926.2773,3999.5,932.2773,4007.5,932.2773" style="stroke:#1963A0;stroke-width:1;"/><text fill="#000000" font-family="sans-serif" font-size="14" lengthAdjust="spacing" textLength="650.5967" x="4012.5" y="934.5742">Page&lt;EmployeeResponseDto&gt; searchEmployeesWithPagination1(String,Integer,String,String,Pageable)</text></g><!--class EmployeeServiceImpl--><g class="entity" data-entity="EmployeeServiceImpl" data-source-line="1" data-uid="ent0002" id="entity_EmployeeServiceImpl"><rect fill="#F1F1F1" height="345.9375" rx="2.5" ry="2.5" style="stroke:#181818;stroke-width:0.5;" width="676.5967" x="3992.5" y="1047.0137"/><ellipse cx="4258.8555" cy="1063.0137" fill="#ADD1B2" rx="11" ry="11" style="stroke:#181818;stroke-width:1;"/><path d="M4261.6211,1058.8887 Q4261.7773,1058.6699 4261.9648,1058.5605 Q4262.1523,1058.4512 4262.3711,1058.4512 Q4262.7461,1058.4512 4262.9805,1058.7168 Q4263.2148,1058.9668 4263.2148,1059.5762 L4263.2148,1061.0293 Q4263.2148,1061.6387 4262.9805,1061.9043 Q4262.7461,1062.1699 4262.3711,1062.1699 Q4262.0273,1062.1699 4261.8242,1061.9668 Q4261.6211,1061.7793 4261.5117,1061.2637 Q4261.4648,1060.9043 4261.2773,1060.7168 Q4260.9492,1060.3418 4260.3398,1060.123 Q4259.7305,1059.9043 4259.1055,1059.9043 Q4258.3398,1059.9043 4257.6992,1060.2324 Q4257.0742,1060.5605 4256.5742,1061.3105 Q4256.0898,1062.0605 4256.0898,1063.0918 L4256.0898,1064.1855 Q4256.0898,1065.4199 4256.9805,1066.248 Q4257.8711,1067.0605 4259.4648,1067.0605 Q4260.4023,1067.0605 4261.0586,1066.8105 Q4261.4492,1066.6543 4261.8711,1066.2168 Q4262.1367,1065.9512 4262.2773,1065.873 Q4262.4336,1065.7949 4262.6367,1065.7949 Q4262.9648,1065.7949 4263.2148,1066.0605 Q4263.4805,1066.3105 4263.4805,1066.6543 Q4263.4805,1066.998 4263.1367,1067.4043 Q4262.6367,1067.9824 4261.8398,1068.3105 Q4260.7617,1068.7637 4259.4648,1068.7637 Q4257.9492,1068.7637 4256.7461,1068.1387 Q4255.7617,1067.6387 4255.0742,1066.5762 Q4254.3867,1065.498 4254.3867,1064.2168 L4254.3867,1063.0605 Q4254.3867,1061.7324 4254.9961,1060.5918 Q4255.6211,1059.4355 4256.7148,1058.8262 Q4257.8086,1058.2012 4259.043,1058.2012 Q4259.7773,1058.2012 4260.418,1058.373 Q4261.0742,1058.5293 4261.6211,1058.8887 Z " fill="#000000"/><text fill="#000000" font-family="sans-serif" font-size="14" lengthAdjust="spacing" textLength="135.3857" x="4279.3555" y="1068.8105">EmployeeServiceImpl</text><line style="stroke:#181818;stroke-width:0.5;" x1="3993.5" x2="4668.0967" y1="1079.0137" y2="1079.0137"/><rect fill="none" height="6" style="stroke:#C82930;stroke-width:1;" width="6" x="4000.5" y="1090.8242"/><text fill="#000000" font-family="sans-serif" font-size="14" lengthAdjust="spacing" text-decoration="underline" textLength="86.3994" x="4012.5" y="1098.1211">Logger logger</text><rect fill="none" height="6" style="stroke:#C82930;stroke-width:1;" width="6" x="4000.5" y="1109.4453"/><text fill="#000000" font-family="sans-serif" font-size="14" lengthAdjust="spacing" textLength="260.6816" x="4012.5" y="1116.7422">EmployeeRepository employeeRepository</text><rect fill="none" height="6" style="stroke:#C82930;stroke-width:1;" width="6" x="4000.5" y="1128.0664"/><text fill="#000000" font-family="sans-serif" font-size="14" lengthAdjust="spacing" textLength="175.0889" x="4012.5" y="1135.3633">ModelMapper modelMapper</text><line style="stroke:#181818;stroke-width:0.5;" x1="3993.5" x2="4668.0967" y1="1142.877" y2="1142.877"/><ellipse cx="4003.5" cy="1157.6875" fill="#84BE84" rx="3" ry="3" style="stroke:#038048;stroke-width:1;"/><text fill="#000000" font-family="sans-serif" font-size="14" lengthAdjust="spacing" textLength="382.0947" x="4012.5" y="1161.9844">EmployeeResponseDto addEmployee(EmployeeRequestDto)</text><ellipse cx="4003.5" cy="1176.3086" fill="#84BE84" rx="3" ry="3" style="stroke:#038048;stroke-width:1;"/><text fill="#000000" font-family="sans-serif" font-size="14" lengthAdjust="spacing" textLength="465.3701" x="4012.5" y="1180.6055">List&lt;EmployeeResponseDto&gt; addEmployees(List&lt;EmployeeRequestDto&gt;)</text><ellipse cx="4003.5" cy="1194.9297" fill="#84BE84" rx="3" ry="3" style="stroke:#038048;stroke-width:1;"/><text fill="#000000" font-family="sans-serif" font-size="14" lengthAdjust="spacing" textLength="473.1563" x="4012.5" y="1199.2266">List&lt;EmployeeResponseDto&gt; addEmployees1(List&lt;EmployeeRequestDto&gt;)</text><ellipse cx="4003.5" cy="1213.5508" fill="#84BE84" rx="3" ry="3" style="stroke:#038048;stroke-width:1;"/><text fill="#000000" font-family="sans-serif" font-size="14" lengthAdjust="spacing" textLength="301.1709" x="4012.5" y="1217.8477">EmployeeResponseDto getEmployeeById(Long)</text><ellipse cx="4003.5" cy="1232.1719" fill="#84BE84" rx="3" ry="3" style="stroke:#038048;stroke-width:1;"/><text fill="#000000" font-family="sans-serif" font-size="14" lengthAdjust="spacing" textLength="302.709" x="4012.5" y="1236.4688">List&lt;EmployeeResponseDto&gt; getAllEmployees()</text><ellipse cx="4003.5" cy="1250.793" fill="#84BE84" rx="3" ry="3" style="stroke:#038048;stroke-width:1;"/><text fill="#000000" font-family="sans-serif" font-size="14" lengthAdjust="spacing" textLength="323.7295" x="4012.5" y="1255.0898">EmployeeResponseDto searchEmployeeById(Long)</text><ellipse cx="4003.5" cy="1269.4141" fill="#84BE84" rx="3" ry="3" style="stroke:#038048;stroke-width:1;"/><text fill="#000000" font-family="sans-serif" font-size="14" lengthAdjust="spacing" textLength="474.6807" x="4012.5" y="1273.7109">List&lt;EmployeeResponseDto&gt; searchEmployees(String,Integer,String,String)</text><ellipse cx="4003.5" cy="1288.0352" fill="#84BE84" rx="3" ry="3" style="stroke:#038048;stroke-width:1;"/><text fill="#000000" font-family="sans-serif" font-size="14" lengthAdjust="spacing" textLength="464.6045" x="4012.5" y="1292.332">EmployeeResponseDto updateEmployeeById(EmployeeRequestDto,Long)</text><ellipse cx="4003.5" cy="1306.6563" fill="#84BE84" rx="3" ry="3" style="stroke:#038048;stroke-width:1;"/><text fill="#000000" font-family="sans-serif" font-size="14" lengthAdjust="spacing" textLength="533.8389" x="4012.5" y="1310.9531">List&lt;EmployeeResponseDto&gt; updateEmployeeByName(EmployeeRequestDto,String)</text><ellipse cx="4003.5" cy="1325.2773" fill="#84BE84" rx="3" ry="3" style="stroke:#038048;stroke-width:1;"/><text fill="#000000" font-family="sans-serif" font-size="14" lengthAdjust="spacing" textLength="198.4541" x="4012.5" y="1329.5742">void deleteEmployeeById(Long)</text><ellipse cx="4003.5" cy="1343.8984" fill="#84BE84" rx="3" ry="3" style="stroke:#038048;stroke-width:1;"/><text fill="#000000" font-family="sans-serif" font-size="14" lengthAdjust="spacing" textLength="466.9492" x="4012.5" y="1348.1953">Page&lt;EmployeeResponseDto&gt; getAllEmployeesWithPagination(Pageable)</text><ellipse cx="4003.5" cy="1362.5195" fill="#84BE84" rx="3" ry="3" style="stroke:#038048;stroke-width:1;"/><text fill="#000000" font-family="sans-serif" font-size="14" lengthAdjust="spacing" textLength="642.8105" x="4012.5" y="1366.8164">Page&lt;EmployeeResponseDto&gt; searchEmployeesWithPagination(String,Integer,String,String,Pageable)</text><ellipse cx="4003.5" cy="1381.1406" fill="#84BE84" rx="3" ry="3" style="stroke:#038048;stroke-width:1;"/><text fill="#000000" font-family="sans-serif" font-size="14" lengthAdjust="spacing" textLength="650.5967" x="4012.5" y="1385.4375">Page&lt;EmployeeResponseDto&gt; searchEmployeesWithPagination1(String,Integer,String,String,Pageable)</text></g><!--class EmployeeRepository--><g class="entity" data-entity="EmployeeRepository" data-source-line="21" data-uid="ent0008" id="entity_EmployeeRepository"><rect fill="#F1F1F1" height="122.4844" rx="2.5" ry="2.5" style="stroke:#181818;stroke-width:0.5;" width="409.6875" x="3502" y="736.0137"/><ellipse cx="3638.0078" cy="752.0137" fill="#B4A7E5" rx="11" ry="11" style="stroke:#181818;stroke-width:1;"/><path d="M3638.9609,748.6543 L3638.9609,755.3105 L3640.6797,755.3105 Q3641.2891,755.3105 3641.5547,755.5449 Q3641.8203,755.7793 3641.8203,756.1699 Q3641.8203,756.5449 3641.5547,756.7793 Q3641.2891,757.0137 3640.6797,757.0137 L3635.5391,757.0137 Q3634.9297,757.0137 3634.6641,756.7793 Q3634.3984,756.5449 3634.3984,756.1543 Q3634.3984,755.7793 3634.6641,755.5449 Q3634.9297,755.3105 3635.5391,755.3105 L3637.2578,755.3105 L3637.2578,748.6543 L3635.5391,748.6543 Q3634.9297,748.6543 3634.6641,748.4199 Q3634.3984,748.1855 3634.3984,747.7949 Q3634.3984,747.4199 3634.6641,747.1855 Q3634.9297,746.9512 3635.5391,746.9512 L3640.6797,746.9512 Q3641.2891,746.9512 3641.5547,747.1855 Q3641.8203,747.4199 3641.8203,747.7949 Q3641.8203,748.1855 3641.5547,748.4199 Q3641.2891,748.6543 3640.6797,748.6543 L3638.9609,748.6543 Z " fill="#000000"/><text fill="#000000" font-family="sans-serif" font-size="14" font-style="italic" lengthAdjust="spacing" textLength="129.1719" x="3658.5078" y="757.8105">EmployeeRepository</text><line style="stroke:#181818;stroke-width:0.5;" x1="3503" x2="3910.6875" y1="768.0137" y2="768.0137"/><line style="stroke:#181818;stroke-width:0.5;" x1="3503" x2="3910.6875" y1="776.0137" y2="776.0137"/><polygon fill="#4177AF" points="3513,786.8242,3509,792.8242,3517,792.8242" style="stroke:#1963A0;stroke-width:1;"/><text fill="#000000" font-family="sans-serif" font-size="14" lengthAdjust="spacing" textLength="186.7441" x="3522" y="795.1211">boolean existsByEmail(String)</text><polygon fill="#4177AF" points="3513,805.4453,3509,811.4453,3517,811.4453" style="stroke:#1963A0;stroke-width:1;"/><text fill="#000000" font-family="sans-serif" font-size="14" lengthAdjust="spacing" textLength="226.4336" x="3522" y="813.7422">List&lt;Employee&gt; findByName(String)</text><polygon fill="#4177AF" points="3513,824.0664,3509,830.0664,3517,830.0664" style="stroke:#1963A0;stroke-width:1;"/><text fill="#000000" font-family="sans-serif" font-size="14" lengthAdjust="spacing" textLength="275.4678" x="3522" y="832.3633">List&lt;String&gt; duplicateEmailList(List&lt;String&gt;)</text><polygon fill="#4177AF" points="3513,842.6875,3509,848.6875,3517,848.6875" style="stroke:#1963A0;stroke-width:1;"/><text fill="#000000" font-family="sans-serif" font-size="14" lengthAdjust="spacing" textLength="383.6875" x="3522" y="850.9844">Page&lt;Employee&gt; findAll(Specification&lt;Employee&gt;,Pageable)</text></g><!--class EmployeeController--><g class="entity" data-entity="EmployeeController" data-source-line="28" data-uid="ent0010" id="entity_EmployeeController"><rect fill="#F1F1F1" height="327.3164" rx="2.5" ry="2.5" style="stroke:#181818;stroke-width:0.5;" width="791.0029" x="2654.5" y="633.5137"/><ellipse cx="2984.2793" cy="649.5137" fill="#ADD1B2" rx="11" ry="11" style="stroke:#181818;stroke-width:1;"/><path d="M2987.0449,645.3887 Q2987.2012,645.1699 2987.3887,645.0605 Q2987.5762,644.9512 2987.7949,644.9512 Q2988.1699,644.9512 2988.4043,645.2168 Q2988.6387,645.4668 2988.6387,646.0762 L2988.6387,647.5293 Q2988.6387,648.1387 2988.4043,648.4043 Q2988.1699,648.6699 2987.7949,648.6699 Q2987.4512,648.6699 2987.248,648.4668 Q2987.0449,648.2793 2986.9355,647.7637 Q2986.8887,647.4043 2986.7012,647.2168 Q2986.373,646.8418 2985.7637,646.623 Q2985.1543,646.4043 2984.5293,646.4043 Q2983.7637,646.4043 2983.123,646.7324 Q2982.498,647.0605 2981.998,647.8105 Q2981.5137,648.5605 2981.5137,649.5918 L2981.5137,650.6855 Q2981.5137,651.9199 2982.4043,652.748 Q2983.2949,653.5605 2984.8887,653.5605 Q2985.8262,653.5605 2986.4824,653.3105 Q2986.873,653.1543 2987.2949,652.7168 Q2987.5605,652.4512 2987.7012,652.373 Q2987.8574,652.2949 2988.0605,652.2949 Q2988.3887,652.2949 2988.6387,652.5605 Q2988.9043,652.8105 2988.9043,653.1543 Q2988.9043,653.498 2988.5605,653.9043 Q2988.0605,654.4824 2987.2637,654.8105 Q2986.1855,655.2637 2984.8887,655.2637 Q2983.373,655.2637 2982.1699,654.6387 Q2981.1855,654.1387 2980.498,653.0762 Q2979.8105,651.998 2979.8105,650.7168 L2979.8105,649.5605 Q2979.8105,648.2324 2980.4199,647.0918 Q2981.0449,645.9355 2982.1387,645.3262 Q2983.2324,644.7012 2984.4668,644.7012 Q2985.2012,644.7012 2985.8418,644.873 Q2986.498,645.0293 2987.0449,645.3887 Z " fill="#000000"/><text fill="#000000" font-family="sans-serif" font-size="14" lengthAdjust="spacing" textLength="122.9443" x="3004.7793" y="655.3105">EmployeeController</text><line style="stroke:#181818;stroke-width:0.5;" x1="2655.5" x2="3444.5029" y1="665.5137" y2="665.5137"/><rect fill="none" height="6" style="stroke:#C82930;stroke-width:1;" width="6" x="2662.5" y="677.3242"/><text fill="#000000" font-family="sans-serif" font-size="14" lengthAdjust="spacing" text-decoration="underline" textLength="86.3994" x="2674.5" y="684.6211">Logger logger</text><rect fill="none" height="6" style="stroke:#C82930;stroke-width:1;" width="6" x="2662.5" y="695.9453"/><text fill="#000000" font-family="sans-serif" font-size="14" lengthAdjust="spacing" textLength="220.2129" x="2674.5" y="703.2422">EmployeeService employeeService</text><line style="stroke:#181818;stroke-width:0.5;" x1="2655.5" x2="3444.5029" y1="710.7559" y2="710.7559"/><polygon fill="#4177AF" points="2665.5,721.5664,2661.5,727.5664,2669.5,727.5664" style="stroke:#1963A0;stroke-width:1;"/><text fill="#000000" font-family="sans-serif" font-size="14" lengthAdjust="spacing" textLength="496.501" x="2674.5" y="729.8633">ResponseEntity&lt;EmployeeResponseDto&gt; addEmployee(EmployeeRequestDto)</text><polygon fill="#4177AF" points="2665.5,740.1875,2661.5,746.1875,2669.5,746.1875" style="stroke:#1963A0;stroke-width:1;"/><text fill="#000000" font-family="sans-serif" font-size="14" lengthAdjust="spacing" textLength="579.7764" x="2674.5" y="748.4844">ResponseEntity&lt;List&lt;EmployeeResponseDto&gt;&gt; addEmployees(List&lt;EmployeeRequestDto&gt;)</text><polygon fill="#4177AF" points="2665.5,758.8086,2661.5,764.8086,2669.5,764.8086" style="stroke:#1963A0;stroke-width:1;"/><text fill="#000000" font-family="sans-serif" font-size="14" lengthAdjust="spacing" textLength="587.5625" x="2674.5" y="767.1055">ResponseEntity&lt;List&lt;EmployeeResponseDto&gt;&gt; addEmployees1(List&lt;EmployeeRequestDto&gt;)</text><polygon fill="#4177AF" points="2665.5,777.4297,2661.5,783.4297,2669.5,783.4297" style="stroke:#1963A0;stroke-width:1;"/><text fill="#000000" font-family="sans-serif" font-size="14" lengthAdjust="spacing" textLength="415.5771" x="2674.5" y="785.7266">ResponseEntity&lt;EmployeeResponseDto&gt; getEmployeeById(Long)</text><polygon fill="#4177AF" points="2665.5,796.0508,2661.5,802.0508,2669.5,802.0508" style="stroke:#1963A0;stroke-width:1;"/><text fill="#000000" font-family="sans-serif" font-size="14" lengthAdjust="spacing" textLength="417.1152" x="2674.5" y="804.3477">ResponseEntity&lt;List&lt;EmployeeResponseDto&gt;&gt; getAllEmployees()</text><polygon fill="#4177AF" points="2665.5,814.6719,2661.5,820.6719,2669.5,820.6719" style="stroke:#1963A0;stroke-width:1;"/><text fill="#000000" font-family="sans-serif" font-size="14" lengthAdjust="spacing" textLength="438.1357" x="2674.5" y="822.9688">ResponseEntity&lt;EmployeeResponseDto&gt; searchEmployeeById(Long)</text><polygon fill="#4177AF" points="2665.5,833.293,2661.5,839.293,2669.5,839.293" style="stroke:#1963A0;stroke-width:1;"/><text fill="#000000" font-family="sans-serif" font-size="14" lengthAdjust="spacing" textLength="589.0869" x="2674.5" y="841.5898">ResponseEntity&lt;List&lt;EmployeeResponseDto&gt;&gt; searchEmployees(String,Integer,String,String)</text><polygon fill="#4177AF" points="2665.5,851.9141,2661.5,857.9141,2669.5,857.9141" style="stroke:#1963A0;stroke-width:1;"/><text fill="#000000" font-family="sans-serif" font-size="14" lengthAdjust="spacing" textLength="579.0107" x="2674.5" y="860.2109">ResponseEntity&lt;EmployeeResponseDto&gt; updateEmployeeById(EmployeeRequestDto,Long)</text><polygon fill="#4177AF" points="2665.5,870.5352,2661.5,876.5352,2669.5,876.5352" style="stroke:#1963A0;stroke-width:1;"/><text fill="#000000" font-family="sans-serif" font-size="14" lengthAdjust="spacing" textLength="648.2451" x="2674.5" y="878.832">ResponseEntity&lt;List&lt;EmployeeResponseDto&gt;&gt; updateEmployeeByName(EmployeeRequestDto,String)</text><polygon fill="#4177AF" points="2665.5,889.1563,2661.5,895.1563,2669.5,895.1563" style="stroke:#1963A0;stroke-width:1;"/><text fill="#000000" font-family="sans-serif" font-size="14" lengthAdjust="spacing" textLength="352.543" x="2674.5" y="897.4531">ResponseEntity&lt;HttpStatus&gt; deleteEmployeeById(Long)</text><polygon fill="#4177AF" points="2665.5,907.7773,2661.5,913.7773,2669.5,913.7773" style="stroke:#1963A0;stroke-width:1;"/><text fill="#000000" font-family="sans-serif" font-size="14" lengthAdjust="spacing" textLength="581.3555" x="2674.5" y="916.0742">ResponseEntity&lt;Page&lt;EmployeeResponseDto&gt;&gt; getAllEmployeesWithPagination(Pageable)</text><polygon fill="#4177AF" points="2665.5,926.3984,2661.5,932.3984,2669.5,932.3984" style="stroke:#1963A0;stroke-width:1;"/><text fill="#000000" font-family="sans-serif" font-size="14" lengthAdjust="spacing" textLength="757.2168" x="2674.5" y="934.6953">ResponseEntity&lt;Page&lt;EmployeeResponseDto&gt;&gt; searchEmployeesWithPagination(String,Integer,String,String,Pageable)</text><polygon fill="#4177AF" points="2665.5,945.0195,2661.5,951.0195,2669.5,951.0195" style="stroke:#1963A0;stroke-width:1;"/><text fill="#000000" font-family="sans-serif" font-size="14" lengthAdjust="spacing" textLength="765.0029" x="2674.5" y="953.3164">ResponseEntity&lt;Page&lt;EmployeeResponseDto&gt;&gt; searchEmployeesWithPagination1(String,Integer,String,String,Pageable)</text></g><!--class ErrorResponse--><g class="entity" data-entity="ErrorResponse" data-source-line="47" data-uid="ent0012" id="entity_ErrorResponse"><rect fill="#F1F1F1" height="196.9688" rx="2.5" ry="2.5" style="stroke:#181818;stroke-width:0.5;" width="223.6133" x="2121" y="698.5137"/><ellipse cx="2181.481" cy="714.5137" fill="#ADD1B2" rx="11" ry="11" style="stroke:#181818;stroke-width:1;"/><path d="M2184.2466,710.3887 Q2184.4028,710.1699 2184.5903,710.0605 Q2184.7778,709.9512 2184.9966,709.9512 Q2185.3716,709.9512 2185.606,710.2168 Q2185.8403,710.4668 2185.8403,711.0762 L2185.8403,712.5293 Q2185.8403,713.1387 2185.606,713.4043 Q2185.3716,713.6699 2184.9966,713.6699 Q2184.6528,713.6699 2184.4497,713.4668 Q2184.2466,713.2793 2184.1372,712.7637 Q2184.0903,712.4043 2183.9028,712.2168 Q2183.5747,711.8418 2182.9653,711.623 Q2182.356,711.4043 2181.731,711.4043 Q2180.9653,711.4043 2180.3247,711.7324 Q2179.6997,712.0605 2179.1997,712.8105 Q2178.7153,713.5605 2178.7153,714.5918 L2178.7153,715.6855 Q2178.7153,716.9199 2179.606,717.748 Q2180.4966,718.5605 2182.0903,718.5605 Q2183.0278,718.5605 2183.6841,718.3105 Q2184.0747,718.1543 2184.4966,717.7168 Q2184.7622,717.4512 2184.9028,717.373 Q2185.0591,717.2949 2185.2622,717.2949 Q2185.5903,717.2949 2185.8403,717.5605 Q2186.106,717.8105 2186.106,718.1543 Q2186.106,718.498 2185.7622,718.9043 Q2185.2622,719.4824 2184.4653,719.8105 Q2183.3872,720.2637 2182.0903,720.2637 Q2180.5747,720.2637 2179.3716,719.6387 Q2178.3872,719.1387 2177.6997,718.0762 Q2177.0122,716.998 2177.0122,715.7168 L2177.0122,714.5605 Q2177.0122,713.2324 2177.6216,712.0918 Q2178.2466,710.9355 2179.3403,710.3262 Q2180.4341,709.7012 2181.6685,709.7012 Q2182.4028,709.7012 2183.0435,709.873 Q2183.6997,710.0293 2184.2466,710.3887 Z " fill="#000000"/><text fill="#000000" font-family="sans-serif" font-size="14" lengthAdjust="spacing" textLength="94.1514" x="2201.981" y="720.3105">ErrorResponse</text><line style="stroke:#181818;stroke-width:0.5;" x1="2122" x2="2343.6133" y1="730.5137" y2="730.5137"/><rect fill="none" height="6" style="stroke:#C82930;stroke-width:1;" width="6" x="2129" y="742.3242"/><text fill="#000000" font-family="sans-serif" font-size="14" lengthAdjust="spacing" textLength="89.4961" x="2141" y="749.6211">int statusCode</text><rect fill="none" height="6" style="stroke:#C82930;stroke-width:1;" width="6" x="2129" y="760.9453"/><text fill="#000000" font-family="sans-serif" font-size="14" lengthAdjust="spacing" textLength="188.2891" x="2141" y="768.2422">String shortSummaryMessage</text><rect fill="none" height="6" style="stroke:#C82930;stroke-width:1;" width="6" x="2129" y="779.5664"/><text fill="#000000" font-family="sans-serif" font-size="14" lengthAdjust="spacing" textLength="129.9443" x="2141" y="786.8633">List&lt;String&gt; errorList</text><rect fill="none" height="6" style="stroke:#C82930;stroke-width:1;" width="6" x="2129" y="798.1875"/><text fill="#000000" font-family="sans-serif" font-size="14" lengthAdjust="spacing" textLength="164.9512" x="2141" y="805.4844">LocalDateTime timeStamp</text><line style="stroke:#181818;stroke-width:0.5;" x1="2122" x2="2343.6133" y1="812.998" y2="812.998"/><ellipse cx="2132" cy="827.8086" fill="#84BE84" rx="3" ry="3" style="stroke:#038048;stroke-width:1;"/><text fill="#000000" font-family="sans-serif" font-size="14" lengthAdjust="spacing" textLength="139.2686" x="2141" y="832.1055">List&lt;String&gt; errorList()</text><ellipse cx="2132" cy="846.4297" fill="#84BE84" rx="3" ry="3" style="stroke:#038048;stroke-width:1;"/><text fill="#000000" font-family="sans-serif" font-size="14" lengthAdjust="spacing" textLength="98.8203" x="2141" y="850.7266">int statusCode()</text><ellipse cx="2132" cy="865.0508" fill="#84BE84" rx="3" ry="3" style="stroke:#038048;stroke-width:1;"/><text fill="#000000" font-family="sans-serif" font-size="14" lengthAdjust="spacing" textLength="174.2754" x="2141" y="869.3477">LocalDateTime timeStamp()</text><ellipse cx="2132" cy="883.6719" fill="#84BE84" rx="3" ry="3" style="stroke:#038048;stroke-width:1;"/><text fill="#000000" font-family="sans-serif" font-size="14" lengthAdjust="spacing" textLength="197.6133" x="2141" y="887.9688">String shortSummaryMessage()</text></g><!--class EmployeeResponseDto--><g class="entity" data-entity="EmployeeResponseDto" data-source-line="74" data-uid="ent0018" id="entity_EmployeeResponseDto"><rect fill="#F1F1F1" height="345.9375" rx="2.5" ry="2.5" style="stroke:#181818;stroke-width:0.5;" width="193.2891" x="2380.5" y="624.0137"/><ellipse cx="2401.8932" cy="640.0137" fill="#ADD1B2" rx="11" ry="11" style="stroke:#181818;stroke-width:1;"/><path d="M2404.6588,635.8887 Q2404.815,635.6699 2405.0025,635.5605 Q2405.19,635.4512 2405.4088,635.4512 Q2405.7838,635.4512 2406.0182,635.7168 Q2406.2525,635.9668 2406.2525,636.5762 L2406.2525,638.0293 Q2406.2525,638.6387 2406.0182,638.9043 Q2405.7838,639.1699 2405.4088,639.1699 Q2405.065,639.1699 2404.8619,638.9668 Q2404.6588,638.7793 2404.5494,638.2637 Q2404.5025,637.9043 2404.315,637.7168 Q2403.9869,637.3418 2403.3775,637.123 Q2402.7682,636.9043 2402.1432,636.9043 Q2401.3775,636.9043 2400.7369,637.2324 Q2400.1119,637.5605 2399.6119,638.3105 Q2399.1275,639.0605 2399.1275,640.0918 L2399.1275,641.1855 Q2399.1275,642.4199 2400.0182,643.248 Q2400.9088,644.0605 2402.5025,644.0605 Q2403.44,644.0605 2404.0963,643.8105 Q2404.4869,643.6543 2404.9088,643.2168 Q2405.1744,642.9512 2405.315,642.873 Q2405.4713,642.7949 2405.6744,642.7949 Q2406.0025,642.7949 2406.2525,643.0605 Q2406.5182,643.3105 2406.5182,643.6543 Q2406.5182,643.998 2406.1744,644.4043 Q2405.6744,644.9824 2404.8775,645.3105 Q2403.7994,645.7637 2402.5025,645.7637 Q2400.9869,645.7637 2399.7838,645.1387 Q2398.7994,644.6387 2398.1119,643.5762 Q2397.4244,642.498 2397.4244,641.2168 L2397.4244,640.0605 Q2397.4244,638.7324 2398.0338,637.5918 Q2398.6588,636.4355 2399.7525,635.8262 Q2400.8463,635.2012 2402.0807,635.2012 Q2402.815,635.2012 2403.4557,635.373 Q2404.1119,635.5293 2404.6588,635.8887 Z " fill="#000000"/><text fill="#000000" font-family="sans-serif" font-size="14" lengthAdjust="spacing" textLength="147.082" x="2417.3139" y="645.8105">EmployeeResponseDto</text><line style="stroke:#181818;stroke-width:0.5;" x1="2381.5" x2="2572.7891" y1="656.0137" y2="656.0137"/><rect fill="none" height="6" style="stroke:#C82930;stroke-width:1;" width="6" x="2388.5" y="667.8242"/><text fill="#000000" font-family="sans-serif" font-size="14" lengthAdjust="spacing" textLength="41.2549" x="2400.5" y="675.1211">long id</text><rect fill="none" height="6" style="stroke:#C82930;stroke-width:1;" width="6" x="2388.5" y="686.4453"/><text fill="#000000" font-family="sans-serif" font-size="14" lengthAdjust="spacing" textLength="75.4824" x="2400.5" y="693.7422">String name</text><rect fill="none" height="6" style="stroke:#C82930;stroke-width:1;" width="6" x="2388.5" y="705.0664"/><text fill="#000000" font-family="sans-serif" font-size="14" lengthAdjust="spacing" textLength="56.0205" x="2400.5" y="712.3633">int salary</text><rect fill="none" height="6" style="stroke:#C82930;stroke-width:1;" width="6" x="2388.5" y="723.6875"/><text fill="#000000" font-family="sans-serif" font-size="14" lengthAdjust="spacing" textLength="111.2822" x="2400.5" y="730.9844">String department</text><rect fill="none" height="6" style="stroke:#C82930;stroke-width:1;" width="6" x="2388.5" y="742.3086"/><text fill="#000000" font-family="sans-serif" font-size="14" lengthAdjust="spacing" textLength="73.917" x="2400.5" y="749.6055">String email</text><line style="stroke:#181818;stroke-width:0.5;" x1="2381.5" x2="2572.7891" y1="757.1191" y2="757.1191"/><ellipse cx="2391.5" cy="771.9297" fill="#84BE84" rx="3" ry="3" style="stroke:#038048;stroke-width:1;"/><text fill="#000000" font-family="sans-serif" font-size="14" lengthAdjust="spacing" textLength="70.8203" x="2400.5" y="776.2266">long getId()</text><ellipse cx="2391.5" cy="790.5508" fill="#84BE84" rx="3" ry="3" style="stroke:#038048;stroke-width:1;"/><text fill="#000000" font-family="sans-serif" font-size="14" lengthAdjust="spacing" textLength="95.7168" x="2400.5" y="794.8477">void setId(long)</text><ellipse cx="2391.5" cy="809.1719" fill="#84BE84" rx="3" ry="3" style="stroke:#038048;stroke-width:1;"/><text fill="#000000" font-family="sans-serif" font-size="14" lengthAdjust="spacing" textLength="106.5928" x="2400.5" y="813.4688">String getName()</text><ellipse cx="2391.5" cy="827.793" fill="#84BE84" rx="3" ry="3" style="stroke:#038048;stroke-width:1;"/><text fill="#000000" font-family="sans-serif" font-size="14" lengthAdjust="spacing" textLength="131.4893" x="2400.5" y="832.0898">void setName(String)</text><ellipse cx="2391.5" cy="846.4141" fill="#84BE84" rx="3" ry="3" style="stroke:#038048;stroke-width:1;"/><text fill="#000000" font-family="sans-serif" font-size="14" lengthAdjust="spacing" textLength="87.1445" x="2400.5" y="850.7109">int getSalary()</text><ellipse cx="2391.5" cy="865.0352" fill="#84BE84" rx="3" ry="3" style="stroke:#038048;stroke-width:1;"/><text fill="#000000" font-family="sans-serif" font-size="14" lengthAdjust="spacing" textLength="112.041" x="2400.5" y="869.332">void setSalary(int)</text><ellipse cx="2391.5" cy="883.6563" fill="#84BE84" rx="3" ry="3" style="stroke:#038048;stroke-width:1;"/><text fill="#000000" font-family="sans-serif" font-size="14" lengthAdjust="spacing" textLength="142.3926" x="2400.5" y="887.9531">String getDepartment()</text><ellipse cx="2391.5" cy="902.2773" fill="#84BE84" rx="3" ry="3" style="stroke:#038048;stroke-width:1;"/><text fill="#000000" font-family="sans-serif" font-size="14" lengthAdjust="spacing" textLength="167.2891" x="2400.5" y="906.5742">void setDepartment(String)</text><ellipse cx="2391.5" cy="920.8984" fill="#84BE84" rx="3" ry="3" style="stroke:#038048;stroke-width:1;"/><text fill="#000000" font-family="sans-serif" font-size="14" lengthAdjust="spacing" textLength="104.2549" x="2400.5" y="925.1953">String getEmail()</text><ellipse cx="2391.5" cy="939.5195" fill="#84BE84" rx="3" ry="3" style="stroke:#038048;stroke-width:1;"/><text fill="#000000" font-family="sans-serif" font-size="14" lengthAdjust="spacing" textLength="129.1514" x="2400.5" y="943.8164">void setEmail(String)</text><ellipse cx="2391.5" cy="958.1406" fill="#84BE84" rx="3" ry="3" style="stroke:#038048;stroke-width:1;"/><text fill="#000000" font-family="sans-serif" font-size="14" lengthAdjust="spacing" textLength="98.0342" x="2400.5" y="962.4375">String toString()</text></g><!--class EmployeeRequestDto--><g class="entity" data-entity="EmployeeRequestDto" data-source-line="136" data-uid="ent0026" id="entity_EmployeeRequestDto"><rect fill="#F1F1F1" height="290.0742" rx="2.5" ry="2.5" style="stroke:#181818;stroke-width:0.5;" width="193.2891" x="2136.5" y="1075.0137"/><ellipse cx="2162.7966" cy="1091.0137" fill="#ADD1B2" rx="11" ry="11" style="stroke:#181818;stroke-width:1;"/><path d="M2165.5622,1086.8887 Q2165.7185,1086.6699 2165.906,1086.5605 Q2166.0935,1086.4512 2166.3122,1086.4512 Q2166.6872,1086.4512 2166.9216,1086.7168 Q2167.156,1086.9668 2167.156,1087.5762 L2167.156,1089.0293 Q2167.156,1089.6387 2166.9216,1089.9043 Q2166.6872,1090.1699 2166.3122,1090.1699 Q2165.9685,1090.1699 2165.7653,1089.9668 Q2165.5622,1089.7793 2165.4528,1089.2637 Q2165.406,1088.9043 2165.2185,1088.7168 Q2164.8903,1088.3418 2164.281,1088.123 Q2163.6716,1087.9043 2163.0466,1087.9043 Q2162.281,1087.9043 2161.6403,1088.2324 Q2161.0153,1088.5605 2160.5153,1089.3105 Q2160.031,1090.0605 2160.031,1091.0918 L2160.031,1092.1855 Q2160.031,1093.4199 2160.9216,1094.248 Q2161.8122,1095.0605 2163.406,1095.0605 Q2164.3435,1095.0605 2164.9997,1094.8105 Q2165.3903,1094.6543 2165.8122,1094.2168 Q2166.0778,1093.9512 2166.2185,1093.873 Q2166.3747,1093.7949 2166.5778,1093.7949 Q2166.906,1093.7949 2167.156,1094.0605 Q2167.4216,1094.3105 2167.4216,1094.6543 Q2167.4216,1094.998 2167.0778,1095.4043 Q2166.5778,1095.9824 2165.781,1096.3105 Q2164.7028,1096.7637 2163.406,1096.7637 Q2161.8903,1096.7637 2160.6872,1096.1387 Q2159.7028,1095.6387 2159.0153,1094.5762 Q2158.3278,1093.498 2158.3278,1092.2168 L2158.3278,1091.0605 Q2158.3278,1089.7324 2158.9372,1088.5918 Q2159.5622,1087.4355 2160.656,1086.8262 Q2161.7497,1086.2012 2162.9841,1086.2012 Q2163.7185,1086.2012 2164.3591,1086.373 Q2165.0153,1086.5293 2165.5622,1086.8887 Z " fill="#000000"/><text fill="#000000" font-family="sans-serif" font-size="14" lengthAdjust="spacing" textLength="136.1855" x="2179.3069" y="1096.8105">EmployeeRequestDto</text><line style="stroke:#181818;stroke-width:0.5;" x1="2137.5" x2="2328.7891" y1="1107.0137" y2="1107.0137"/><rect fill="none" height="6" style="stroke:#C82930;stroke-width:1;" width="6" x="2144.5" y="1118.8242"/><text fill="#000000" font-family="sans-serif" font-size="14" lengthAdjust="spacing" textLength="75.4824" x="2156.5" y="1126.1211">String name</text><rect fill="none" height="6" style="stroke:#C82930;stroke-width:1;" width="6" x="2144.5" y="1137.4453"/><text fill="#000000" font-family="sans-serif" font-size="14" lengthAdjust="spacing" textLength="56.0205" x="2156.5" y="1144.7422">int salary</text><rect fill="none" height="6" style="stroke:#C82930;stroke-width:1;" width="6" x="2144.5" y="1156.0664"/><text fill="#000000" font-family="sans-serif" font-size="14" lengthAdjust="spacing" textLength="111.2822" x="2156.5" y="1163.3633">String department</text><rect fill="none" height="6" style="stroke:#C82930;stroke-width:1;" width="6" x="2144.5" y="1174.6875"/><text fill="#000000" font-family="sans-serif" font-size="14" lengthAdjust="spacing" textLength="73.917" x="2156.5" y="1181.9844">String email</text><line style="stroke:#181818;stroke-width:0.5;" x1="2137.5" x2="2328.7891" y1="1189.498" y2="1189.498"/><ellipse cx="2147.5" cy="1204.3086" fill="#84BE84" rx="3" ry="3" style="stroke:#038048;stroke-width:1;"/><text fill="#000000" font-family="sans-serif" font-size="14" lengthAdjust="spacing" textLength="106.5928" x="2156.5" y="1208.6055">String getName()</text><ellipse cx="2147.5" cy="1222.9297" fill="#84BE84" rx="3" ry="3" style="stroke:#038048;stroke-width:1;"/><text fill="#000000" font-family="sans-serif" font-size="14" lengthAdjust="spacing" textLength="131.4893" x="2156.5" y="1227.2266">void setName(String)</text><ellipse cx="2147.5" cy="1241.5508" fill="#84BE84" rx="3" ry="3" style="stroke:#038048;stroke-width:1;"/><text fill="#000000" font-family="sans-serif" font-size="14" lengthAdjust="spacing" textLength="87.1445" x="2156.5" y="1245.8477">int getSalary()</text><ellipse cx="2147.5" cy="1260.1719" fill="#84BE84" rx="3" ry="3" style="stroke:#038048;stroke-width:1;"/><text fill="#000000" font-family="sans-serif" font-size="14" lengthAdjust="spacing" textLength="112.041" x="2156.5" y="1264.4688">void setSalary(int)</text><ellipse cx="2147.5" cy="1278.793" fill="#84BE84" rx="3" ry="3" style="stroke:#038048;stroke-width:1;"/><text fill="#000000" font-family="sans-serif" font-size="14" lengthAdjust="spacing" textLength="142.3926" x="2156.5" y="1283.0898">String getDepartment()</text><ellipse cx="2147.5" cy="1297.4141" fill="#84BE84" rx="3" ry="3" style="stroke:#038048;stroke-width:1;"/><text fill="#000000" font-family="sans-serif" font-size="14" lengthAdjust="spacing" textLength="167.2891" x="2156.5" y="1301.7109">void setDepartment(String)</text><ellipse cx="2147.5" cy="1316.0352" fill="#84BE84" rx="3" ry="3" style="stroke:#038048;stroke-width:1;"/><text fill="#000000" font-family="sans-serif" font-size="14" lengthAdjust="spacing" textLength="104.2549" x="2156.5" y="1320.332">String getEmail()</text><ellipse cx="2147.5" cy="1334.6563" fill="#84BE84" rx="3" ry="3" style="stroke:#038048;stroke-width:1;"/><text fill="#000000" font-family="sans-serif" font-size="14" lengthAdjust="spacing" textLength="129.1514" x="2156.5" y="1338.9531">void setEmail(String)</text><ellipse cx="2147.5" cy="1353.2773" fill="#84BE84" rx="3" ry="3" style="stroke:#038048;stroke-width:1;"/><text fill="#000000" font-family="sans-serif" font-size="14" lengthAdjust="spacing" textLength="98.0342" x="2156.5" y="1357.5742">String toString()</text></g><!--class Employee--><g class="entity" data-entity="Employee" data-source-line="114" data-uid="ent0023" id="entity_Employee"><rect fill="#F1F1F1" height="345.9375" rx="2.5" ry="2.5" style="stroke:#181818;stroke-width:0.5;" width="193.2891" x="1871.5" y="624.0137"/><ellipse cx="1932.7671" cy="640.0137" fill="#ADD1B2" rx="11" ry="11" style="stroke:#181818;stroke-width:1;"/><path d="M1935.5327,635.8887 Q1935.689,635.6699 1935.8765,635.5605 Q1936.064,635.4512 1936.2827,635.4512 Q1936.6577,635.4512 1936.8921,635.7168 Q1937.1265,635.9668 1937.1265,636.5762 L1937.1265,638.0293 Q1937.1265,638.6387 1936.8921,638.9043 Q1936.6577,639.1699 1936.2827,639.1699 Q1935.939,639.1699 1935.7358,638.9668 Q1935.5327,638.7793 1935.4233,638.2637 Q1935.3765,637.9043 1935.189,637.7168 Q1934.8608,637.3418 1934.2515,637.123 Q1933.6421,636.9043 1933.0171,636.9043 Q1932.2515,636.9043 1931.6108,637.2324 Q1930.9858,637.5605 1930.4858,638.3105 Q1930.0015,639.0605 1930.0015,640.0918 L1930.0015,641.1855 Q1930.0015,642.4199 1930.8921,643.248 Q1931.7827,644.0605 1933.3765,644.0605 Q1934.314,644.0605 1934.9702,643.8105 Q1935.3608,643.6543 1935.7827,643.2168 Q1936.0483,642.9512 1936.189,642.873 Q1936.3452,642.7949 1936.5483,642.7949 Q1936.8765,642.7949 1937.1265,643.0605 Q1937.3921,643.3105 1937.3921,643.6543 Q1937.3921,643.998 1937.0483,644.4043 Q1936.5483,644.9824 1935.7515,645.3105 Q1934.6733,645.7637 1933.3765,645.7637 Q1931.8608,645.7637 1930.6577,645.1387 Q1929.6733,644.6387 1928.9858,643.5762 Q1928.2983,642.498 1928.2983,641.2168 L1928.2983,640.0605 Q1928.2983,638.7324 1928.9077,637.5918 Q1929.5327,636.4355 1930.6265,635.8262 Q1931.7202,635.2012 1932.9546,635.2012 Q1933.689,635.2012 1934.3296,635.373 Q1934.9858,635.5293 1935.5327,635.8887 Z " fill="#000000"/><text fill="#000000" font-family="sans-serif" font-size="14" lengthAdjust="spacing" textLength="62.2549" x="1953.2671" y="645.8105">Employee</text><line style="stroke:#181818;stroke-width:0.5;" x1="1872.5" x2="2063.7891" y1="656.0137" y2="656.0137"/><rect fill="none" height="6" style="stroke:#C82930;stroke-width:1;" width="6" x="1879.5" y="667.8242"/><text fill="#000000" font-family="sans-serif" font-size="14" lengthAdjust="spacing" textLength="45.9307" x="1891.5" y="675.1211">Long id</text><rect fill="none" height="6" style="stroke:#C82930;stroke-width:1;" width="6" x="1879.5" y="686.4453"/><text fill="#000000" font-family="sans-serif" font-size="14" lengthAdjust="spacing" textLength="75.4824" x="1891.5" y="693.7422">String name</text><rect fill="none" height="6" style="stroke:#C82930;stroke-width:1;" width="6" x="1879.5" y="705.0664"/><text fill="#000000" font-family="sans-serif" font-size="14" lengthAdjust="spacing" textLength="56.0205" x="1891.5" y="712.3633">int salary</text><rect fill="none" height="6" style="stroke:#C82930;stroke-width:1;" width="6" x="1879.5" y="723.6875"/><text fill="#000000" font-family="sans-serif" font-size="14" lengthAdjust="spacing" textLength="111.2822" x="1891.5" y="730.9844">String department</text><rect fill="none" height="6" style="stroke:#C82930;stroke-width:1;" width="6" x="1879.5" y="742.3086"/><text fill="#000000" font-family="sans-serif" font-size="14" lengthAdjust="spacing" textLength="73.917" x="1891.5" y="749.6055">String email</text><line style="stroke:#181818;stroke-width:0.5;" x1="1872.5" x2="2063.7891" y1="757.1191" y2="757.1191"/><ellipse cx="1882.5" cy="771.9297" fill="#84BE84" rx="3" ry="3" style="stroke:#038048;stroke-width:1;"/><text fill="#000000" font-family="sans-serif" font-size="14" lengthAdjust="spacing" textLength="75.4961" x="1891.5" y="776.2266">Long getId()</text><ellipse cx="1882.5" cy="790.5508" fill="#84BE84" rx="3" ry="3" style="stroke:#038048;stroke-width:1;"/><text fill="#000000" font-family="sans-serif" font-size="14" lengthAdjust="spacing" textLength="100.3926" x="1891.5" y="794.8477">void setId(Long)</text><ellipse cx="1882.5" cy="809.1719" fill="#84BE84" rx="3" ry="3" style="stroke:#038048;stroke-width:1;"/><text fill="#000000" font-family="sans-serif" font-size="14" lengthAdjust="spacing" textLength="106.5928" x="1891.5" y="813.4688">String getName()</text><ellipse cx="1882.5" cy="827.793" fill="#84BE84" rx="3" ry="3" style="stroke:#038048;stroke-width:1;"/><text fill="#000000" font-family="sans-serif" font-size="14" lengthAdjust="spacing" textLength="131.4893" x="1891.5" y="832.0898">void setName(String)</text><ellipse cx="1882.5" cy="846.4141" fill="#84BE84" rx="3" ry="3" style="stroke:#038048;stroke-width:1;"/><text fill="#000000" font-family="sans-serif" font-size="14" lengthAdjust="spacing" textLength="87.1445" x="1891.5" y="850.7109">int getSalary()</text><ellipse cx="1882.5" cy="865.0352" fill="#84BE84" rx="3" ry="3" style="stroke:#038048;stroke-width:1;"/><text fill="#000000" font-family="sans-serif" font-size="14" lengthAdjust="spacing" textLength="112.041" x="1891.5" y="869.332">void setSalary(int)</text><ellipse cx="1882.5" cy="883.6563" fill="#84BE84" rx="3" ry="3" style="stroke:#038048;stroke-width:1;"/><text fill="#000000" font-family="sans-serif" font-size="14" lengthAdjust="spacing" textLength="142.3926" x="1891.5" y="887.9531">String getDepartment()</text><ellipse cx="1882.5" cy="902.2773" fill="#84BE84" rx="3" ry="3" style="stroke:#038048;stroke-width:1;"/><text fill="#000000" font-family="sans-serif" font-size="14" lengthAdjust="spacing" textLength="167.2891" x="1891.5" y="906.5742">void setDepartment(String)</text><ellipse cx="1882.5" cy="920.8984" fill="#84BE84" rx="3" ry="3" style="stroke:#038048;stroke-width:1;"/><text fill="#000000" font-family="sans-serif" font-size="14" lengthAdjust="spacing" textLength="104.2549" x="1891.5" y="925.1953">String getEmail()</text><ellipse cx="1882.5" cy="939.5195" fill="#84BE84" rx="3" ry="3" style="stroke:#038048;stroke-width:1;"/><text fill="#000000" font-family="sans-serif" font-size="14" lengthAdjust="spacing" textLength="129.1514" x="1891.5" y="943.8164">void setEmail(String)</text><ellipse cx="1882.5" cy="958.1406" fill="#84BE84" rx="3" ry="3" style="stroke:#038048;stroke-width:1;"/><text fill="#000000" font-family="sans-serif" font-size="14" lengthAdjust="spacing" textLength="98.0342" x="1891.5" y="962.4375">String toString()</text></g><!--class ModelMapperConfig--><g class="entity" data-entity="ModelMapperConfig" data-source-line="59" data-uid="ent0015" id="entity_ModelMapperConfig"><rect fill="#F1F1F1" height="66.6211" rx="2.5" ry="2.5" style="stroke:#181818;stroke-width:0.5;" width="210.4131" x="736" y="763.5137"/><ellipse cx="774.5551" cy="779.5137" fill="#ADD1B2" rx="11" ry="11" style="stroke:#181818;stroke-width:1;"/><path d="M777.3208,775.3887 Q777.477,775.1699 777.6645,775.0605 Q777.852,774.9512 778.0708,774.9512 Q778.4458,774.9512 778.6801,775.2168 Q778.9145,775.4668 778.9145,776.0762 L778.9145,777.5293 Q778.9145,778.1387 778.6801,778.4043 Q778.4458,778.6699 778.0708,778.6699 Q777.727,778.6699 777.5239,778.4668 Q777.3208,778.2793 777.2114,777.7637 Q777.1645,777.4043 776.977,777.2168 Q776.6489,776.8418 776.0395,776.623 Q775.4301,776.4043 774.8051,776.4043 Q774.0395,776.4043 773.3989,776.7324 Q772.7739,777.0605 772.2739,777.8105 Q771.7895,778.5605 771.7895,779.5918 L771.7895,780.6855 Q771.7895,781.9199 772.6801,782.748 Q773.5708,783.5605 775.1645,783.5605 Q776.102,783.5605 776.7583,783.3105 Q777.1489,783.1543 777.5708,782.7168 Q777.8364,782.4512 777.977,782.373 Q778.1333,782.2949 778.3364,782.2949 Q778.6645,782.2949 778.9145,782.5605 Q779.1801,782.8105 779.1801,783.1543 Q779.1801,783.498 778.8364,783.9043 Q778.3364,784.4824 777.5395,784.8105 Q776.4614,785.2637 775.1645,785.2637 Q773.6489,785.2637 772.4458,784.6387 Q771.4614,784.1387 770.7739,783.0762 Q770.0864,781.998 770.0864,780.7168 L770.0864,779.5605 Q770.0864,778.2324 770.6958,777.0918 Q771.3208,775.9355 772.4145,775.3262 Q773.5083,774.7012 774.7426,774.7012 Q775.477,774.7012 776.1176,774.873 Q776.7739,775.0293 777.3208,775.3887 Z " fill="#000000"/><text fill="#000000" font-family="sans-serif" font-size="14" lengthAdjust="spacing" textLength="126.0684" x="793.7896" y="785.3105">ModelMapperConfig</text><line style="stroke:#181818;stroke-width:0.5;" x1="737" x2="945.4131" y1="795.5137" y2="795.5137"/><line style="stroke:#181818;stroke-width:0.5;" x1="737" x2="945.4131" y1="803.5137" y2="803.5137"/><ellipse cx="747" cy="818.3242" fill="#84BE84" rx="3" ry="3" style="stroke:#038048;stroke-width:1;"/><text fill="#000000" font-family="sans-serif" font-size="14" lengthAdjust="spacing" textLength="184.4131" x="756" y="822.6211">ModelMapper modelMapper()</text></g><!--class GlobalExceptionHandler--><g class="entity" data-entity="GlobalExceptionHandler" data-source-line="63" data-uid="ent0017" id="entity_GlobalExceptionHandler"><rect fill="#F1F1F1" height="196.9688" rx="2.5" ry="2.5" style="stroke:#181818;stroke-width:0.5;" width="809.6035" x="981" y="698.5137"/><ellipse cx="1306.0625" cy="714.5137" fill="#ADD1B2" rx="11" ry="11" style="stroke:#181818;stroke-width:1;"/><path d="M1308.8281,710.3887 Q1308.9844,710.1699 1309.1719,710.0605 Q1309.3594,709.9512 1309.5781,709.9512 Q1309.9531,709.9512 1310.1875,710.2168 Q1310.4219,710.4668 1310.4219,711.0762 L1310.4219,712.5293 Q1310.4219,713.1387 1310.1875,713.4043 Q1309.9531,713.6699 1309.5781,713.6699 Q1309.2344,713.6699 1309.0313,713.4668 Q1308.8281,713.2793 1308.7188,712.7637 Q1308.6719,712.4043 1308.4844,712.2168 Q1308.1563,711.8418 1307.5469,711.623 Q1306.9375,711.4043 1306.3125,711.4043 Q1305.5469,711.4043 1304.9063,711.7324 Q1304.2813,712.0605 1303.7813,712.8105 Q1303.2969,713.5605 1303.2969,714.5918 L1303.2969,715.6855 Q1303.2969,716.9199 1304.1875,717.748 Q1305.0781,718.5605 1306.6719,718.5605 Q1307.6094,718.5605 1308.2656,718.3105 Q1308.6563,718.1543 1309.0781,717.7168 Q1309.3438,717.4512 1309.4844,717.373 Q1309.6406,717.2949 1309.8438,717.2949 Q1310.1719,717.2949 1310.4219,717.5605 Q1310.6875,717.8105 1310.6875,718.1543 Q1310.6875,718.498 1310.3438,718.9043 Q1309.8438,719.4824 1309.0469,719.8105 Q1307.9688,720.2637 1306.6719,720.2637 Q1305.1563,720.2637 1303.9531,719.6387 Q1302.9688,719.1387 1302.2813,718.0762 Q1301.5938,716.998 1301.5938,715.7168 L1301.5938,714.5605 Q1301.5938,713.2324 1302.2031,712.0918 Q1302.8281,710.9355 1303.9219,710.3262 Q1305.0156,709.7012 1306.25,709.7012 Q1306.9844,709.7012 1307.625,709.873 Q1308.2813,710.0293 1308.8281,710.3887 Z " fill="#000000"/><text fill="#000000" font-family="sans-serif" font-size="14" lengthAdjust="spacing" textLength="150.9785" x="1326.5625" y="720.3105">GlobalExceptionHandler</text><line style="stroke:#181818;stroke-width:0.5;" x1="982" x2="1789.6035" y1="730.5137" y2="730.5137"/><line style="stroke:#181818;stroke-width:0.5;" x1="982" x2="1789.6035" y1="738.5137" y2="738.5137"/><polygon fill="#4177AF" points="992,749.3242,988,755.3242,996,755.3242" style="stroke:#1963A0;stroke-width:1;"/><text fill="#000000" font-family="sans-serif" font-size="14" lengthAdjust="spacing" textLength="573.5215" x="1001" y="757.6211">ResponseEntity&lt;ErrorResponse&gt; handleDuplicateEmailException(DuplicateEmailException)</text><polygon fill="#4177AF" points="992,767.9453,988,773.9453,996,773.9453" style="stroke:#1963A0;stroke-width:1;"/><text fill="#000000" font-family="sans-serif" font-size="14" lengthAdjust="spacing" textLength="707.3965" x="1001" y="776.2422">ResponseEntity&lt;ErrorResponse&gt; handleMethodArgumentNotValidException(MethodArgumentNotValidException)</text><polygon fill="#4177AF" points="992,786.5664,988,792.5664,996,792.5664" style="stroke:#1963A0;stroke-width:1;"/><text fill="#000000" font-family="sans-serif" font-size="14" lengthAdjust="spacing" textLength="442.8184" x="1001" y="794.8633">ResponseEntity&lt;ErrorResponse&gt; handleBindException(BindException)</text><polygon fill="#4177AF" points="992,805.1875,988,811.1875,996,811.1875" style="stroke:#1963A0;stroke-width:1;"/><text fill="#000000" font-family="sans-serif" font-size="14" lengthAdjust="spacing" textLength="621.7969" x="1001" y="813.4844">ResponseEntity&lt;ErrorResponse&gt; handleConstraintViolationException(ConstraintViolationException)</text><polygon fill="#4177AF" points="992,823.8086,988,829.8086,996,829.8086" style="stroke:#1963A0;stroke-width:1;"/><text fill="#000000" font-family="sans-serif" font-size="14" lengthAdjust="spacing" textLength="783.6035" x="1001" y="832.1055">ResponseEntity&lt;ErrorResponse&gt; handleMethodArgumentTypeMismatchException(MethodArgumentTypeMismatchException)</text><polygon fill="#4177AF" points="992,842.4297,988,848.4297,996,848.4297" style="stroke:#1963A0;stroke-width:1;"/><text fill="#000000" font-family="sans-serif" font-size="14" lengthAdjust="spacing" textLength="629.5762" x="1001" y="850.7266">ResponseEntity&lt;ErrorResponse&gt; handleResourceNotFoundException(ResourceNotFoundException)</text><polygon fill="#4177AF" points="992,861.0508,988,867.0508,996,867.0508" style="stroke:#1963A0;stroke-width:1;"/><text fill="#000000" font-family="sans-serif" font-size="14" lengthAdjust="spacing" textLength="701.2031" x="1001" y="869.3477">ResponseEntity&lt;ErrorResponse&gt; handleHandlerMethodValidationException(HandlerMethodValidationException)</text><polygon fill="#4177AF" points="992,879.6719,988,885.6719,996,885.6719" style="stroke:#1963A0;stroke-width:1;"/><text fill="#000000" font-family="sans-serif" font-size="14" lengthAdjust="spacing" textLength="412.4258" x="1001" y="887.9688">ResponseEntity&lt;ErrorResponse&gt; handleGenericErrors(Exception)</text></g><!--class DataBaseHealthIndicator--><g class="entity" data-entity="DataBaseHealthIndicator" data-source-line="94" data-uid="ent0019" id="entity_DataBaseHealthIndicator"><rect fill="#F1F1F1" height="48" rx="2.5" ry="2.5" style="stroke:#181818;stroke-width:0.5;" width="187.6475" x="747" y="1196.0137"/><ellipse cx="762" cy="1212.0137" fill="#ADD1B2" rx="11" ry="11" style="stroke:#181818;stroke-width:1;"/><path d="M764.7656,1207.8887 Q764.9219,1207.6699 765.1094,1207.5605 Q765.2969,1207.4512 765.5156,1207.4512 Q765.8906,1207.4512 766.125,1207.7168 Q766.3594,1207.9668 766.3594,1208.5762 L766.3594,1210.0293 Q766.3594,1210.6387 766.125,1210.9043 Q765.8906,1211.1699 765.5156,1211.1699 Q765.1719,1211.1699 764.9688,1210.9668 Q764.7656,1210.7793 764.6563,1210.2637 Q764.6094,1209.9043 764.4219,1209.7168 Q764.0938,1209.3418 763.4844,1209.123 Q762.875,1208.9043 762.25,1208.9043 Q761.4844,1208.9043 760.8438,1209.2324 Q760.2188,1209.5605 759.7188,1210.3105 Q759.2344,1211.0605 759.2344,1212.0918 L759.2344,1213.1855 Q759.2344,1214.4199 760.125,1215.248 Q761.0156,1216.0605 762.6094,1216.0605 Q763.5469,1216.0605 764.2031,1215.8105 Q764.5938,1215.6543 765.0156,1215.2168 Q765.2813,1214.9512 765.4219,1214.873 Q765.5781,1214.7949 765.7813,1214.7949 Q766.1094,1214.7949 766.3594,1215.0605 Q766.625,1215.3105 766.625,1215.6543 Q766.625,1215.998 766.2813,1216.4043 Q765.7813,1216.9824 764.9844,1217.3105 Q763.9063,1217.7637 762.6094,1217.7637 Q761.0938,1217.7637 759.8906,1217.1387 Q758.9063,1216.6387 758.2188,1215.5762 Q757.5313,1214.498 757.5313,1213.2168 L757.5313,1212.0605 Q757.5313,1210.7324 758.1406,1209.5918 Q758.7656,1208.4355 759.8594,1207.8262 Q760.9531,1207.2012 762.1875,1207.2012 Q762.9219,1207.2012 763.5625,1207.373 Q764.2188,1207.5293 764.7656,1207.8887 Z " fill="#000000"/><text fill="#000000" font-family="sans-serif" font-size="14" lengthAdjust="spacing" textLength="155.6475" x="776" y="1217.8105">DataBaseHealthIndicator</text><line style="stroke:#181818;stroke-width:0.5;" x1="748" x2="933.6475" y1="1228.0137" y2="1228.0137"/><line style="stroke:#181818;stroke-width:0.5;" x1="748" x2="933.6475" y1="1236.0137" y2="1236.0137"/></g><!--class DuplicateEmailException--><g class="entity" data-entity="DuplicateEmailException" data-source-line="96" data-uid="ent0020" id="entity_DuplicateEmailException"><rect fill="#F1F1F1" height="48" rx="2.5" ry="2.5" style="stroke:#181818;stroke-width:0.5;" width="186.8545" x="242.5" y="1196.0137"/><ellipse cx="257.5" cy="1212.0137" fill="#ADD1B2" rx="11" ry="11" style="stroke:#181818;stroke-width:1;"/><path d="M260.2656,1207.8887 Q260.4219,1207.6699 260.6094,1207.5605 Q260.7969,1207.4512 261.0156,1207.4512 Q261.3906,1207.4512 261.625,1207.7168 Q261.8594,1207.9668 261.8594,1208.5762 L261.8594,1210.0293 Q261.8594,1210.6387 261.625,1210.9043 Q261.3906,1211.1699 261.0156,1211.1699 Q260.6719,1211.1699 260.4688,1210.9668 Q260.2656,1210.7793 260.1563,1210.2637 Q260.1094,1209.9043 259.9219,1209.7168 Q259.5938,1209.3418 258.9844,1209.123 Q258.375,1208.9043 257.75,1208.9043 Q256.9844,1208.9043 256.3438,1209.2324 Q255.7188,1209.5605 255.2188,1210.3105 Q254.7344,1211.0605 254.7344,1212.0918 L254.7344,1213.1855 Q254.7344,1214.4199 255.625,1215.248 Q256.5156,1216.0605 258.1094,1216.0605 Q259.0469,1216.0605 259.7031,1215.8105 Q260.0938,1215.6543 260.5156,1215.2168 Q260.7813,1214.9512 260.9219,1214.873 Q261.0781,1214.7949 261.2813,1214.7949 Q261.6094,1214.7949 261.8594,1215.0605 Q262.125,1215.3105 262.125,1215.6543 Q262.125,1215.998 261.7813,1216.4043 Q261.2813,1216.9824 260.4844,1217.3105 Q259.4063,1217.7637 258.1094,1217.7637 Q256.5938,1217.7637 255.3906,1217.1387 Q254.4063,1216.6387 253.7188,1215.5762 Q253.0313,1214.498 253.0313,1213.2168 L253.0313,1212.0605 Q253.0313,1210.7324 253.6406,1209.5918 Q254.2656,1208.4355 255.3594,1207.8262 Q256.4531,1207.2012 257.6875,1207.2012 Q258.4219,1207.2012 259.0625,1207.373 Q259.7188,1207.5293 260.2656,1207.8887 Z " fill="#000000"/><text fill="#000000" font-family="sans-serif" font-size="14" lengthAdjust="spacing" textLength="154.8545" x="271.5" y="1217.8105">DuplicateEmailException</text><line style="stroke:#181818;stroke-width:0.5;" x1="243.5" x2="428.3545" y1="1228.0137" y2="1228.0137"/><line style="stroke:#181818;stroke-width:0.5;" x1="243.5" x2="428.3545" y1="1236.0137" y2="1236.0137"/></g><!--class ResourceNotFoundException--><g class="entity" data-entity="ResourceNotFoundException" data-source-line="134" data-uid="ent0025" id="entity_ResourceNotFoundException"><rect fill="#F1F1F1" height="48" rx="2.5" ry="2.5" style="stroke:#181818;stroke-width:0.5;" width="214.8818" x="464.5" y="1196.0137"/><ellipse cx="479.5" cy="1212.0137" fill="#ADD1B2" rx="11" ry="11" style="stroke:#181818;stroke-width:1;"/><path d="M482.2656,1207.8887 Q482.4219,1207.6699 482.6094,1207.5605 Q482.7969,1207.4512 483.0156,1207.4512 Q483.3906,1207.4512 483.625,1207.7168 Q483.8594,1207.9668 483.8594,1208.5762 L483.8594,1210.0293 Q483.8594,1210.6387 483.625,1210.9043 Q483.3906,1211.1699 483.0156,1211.1699 Q482.6719,1211.1699 482.4688,1210.9668 Q482.2656,1210.7793 482.1563,1210.2637 Q482.1094,1209.9043 481.9219,1209.7168 Q481.5938,1209.3418 480.9844,1209.123 Q480.375,1208.9043 479.75,1208.9043 Q478.9844,1208.9043 478.3438,1209.2324 Q477.7188,1209.5605 477.2188,1210.3105 Q476.7344,1211.0605 476.7344,1212.0918 L476.7344,1213.1855 Q476.7344,1214.4199 477.625,1215.248 Q478.5156,1216.0605 480.1094,1216.0605 Q481.0469,1216.0605 481.7031,1215.8105 Q482.0938,1215.6543 482.5156,1215.2168 Q482.7813,1214.9512 482.9219,1214.873 Q483.0781,1214.7949 483.2813,1214.7949 Q483.6094,1214.7949 483.8594,1215.0605 Q484.125,1215.3105 484.125,1215.6543 Q484.125,1215.998 483.7813,1216.4043 Q483.2813,1216.9824 482.4844,1217.3105 Q481.4063,1217.7637 480.1094,1217.7637 Q478.5938,1217.7637 477.3906,1217.1387 Q476.4063,1216.6387 475.7188,1215.5762 Q475.0313,1214.498 475.0313,1213.2168 L475.0313,1212.0605 Q475.0313,1210.7324 475.6406,1209.5918 Q476.2656,1208.4355 477.3594,1207.8262 Q478.4531,1207.2012 479.6875,1207.2012 Q480.4219,1207.2012 481.0625,1207.373 Q481.7188,1207.5293 482.2656,1207.8887 Z " fill="#000000"/><text fill="#000000" font-family="sans-serif" font-size="14" lengthAdjust="spacing" textLength="182.8818" x="493.5" y="1217.8105">ResourceNotFoundException</text><line style="stroke:#181818;stroke-width:0.5;" x1="465.5" x2="678.3818" y1="1228.0137" y2="1228.0137"/><line style="stroke:#181818;stroke-width:0.5;" x1="465.5" x2="678.3818" y1="1236.0137" y2="1236.0137"/></g><!--class RuntimeException--><g class="entity" data-entity="RuntimeException" data-source-line="161" data-uid="ent0036" id="entity_RuntimeException"><rect fill="#F1F1F1" height="48" rx="2.5" ry="2.5" style="stroke:#181818;stroke-width:0.5;" width="145.6133" x="381" y="773.0137"/><ellipse cx="396" cy="789.0137" fill="#ADD1B2" rx="11" ry="11" style="stroke:#181818;stroke-width:1;"/><path d="M398.7656,784.8887 Q398.9219,784.6699 399.1094,784.5605 Q399.2969,784.4512 399.5156,784.4512 Q399.8906,784.4512 400.125,784.7168 Q400.3594,784.9668 400.3594,785.5762 L400.3594,787.0293 Q400.3594,787.6387 400.125,787.9043 Q399.8906,788.1699 399.5156,788.1699 Q399.1719,788.1699 398.9688,787.9668 Q398.7656,787.7793 398.6563,787.2637 Q398.6094,786.9043 398.4219,786.7168 Q398.0938,786.3418 397.4844,786.123 Q396.875,785.9043 396.25,785.9043 Q395.4844,785.9043 394.8438,786.2324 Q394.2188,786.5605 393.7188,787.3105 Q393.2344,788.0605 393.2344,789.0918 L393.2344,790.1855 Q393.2344,791.4199 394.125,792.248 Q395.0156,793.0605 396.6094,793.0605 Q397.5469,793.0605 398.2031,792.8105 Q398.5938,792.6543 399.0156,792.2168 Q399.2813,791.9512 399.4219,791.873 Q399.5781,791.7949 399.7813,791.7949 Q400.1094,791.7949 400.3594,792.0605 Q400.625,792.3105 400.625,792.6543 Q400.625,792.998 400.2813,793.4043 Q399.7813,793.9824 398.9844,794.3105 Q397.9063,794.7637 396.6094,794.7637 Q395.0938,794.7637 393.8906,794.1387 Q392.9063,793.6387 392.2188,792.5762 Q391.5313,791.498 391.5313,790.2168 L391.5313,789.0605 Q391.5313,787.7324 392.1406,786.5918 Q392.7656,785.4355 393.8594,784.8262 Q394.9531,784.2012 396.1875,784.2012 Q396.9219,784.2012 397.5625,784.373 Q398.2188,784.5293 398.7656,784.8887 Z " fill="#000000"/><text fill="#000000" font-family="sans-serif" font-size="14" lengthAdjust="spacing" textLength="113.6133" x="410" y="794.8105">RuntimeException</text><line style="stroke:#181818;stroke-width:0.5;" x1="382" x2="525.6133" y1="805.0137" y2="805.0137"/><line style="stroke:#181818;stroke-width:0.5;" x1="382" x2="525.6133" y1="813.0137" y2="813.0137"/></g><!--class JpaRepository--><g class="entity" data-entity="JpaRepository" data-source-line="160" data-uid="ent0029" id="entity_JpaRepository"><rect fill="#F1F1F1" height="48" rx="2.5" ry="2.5" style="stroke:#181818;stroke-width:0.5;" width="121.4893" x="3646.5" y="223.0137"/><ellipse cx="3661.5" cy="239.0137" fill="#ADD1B2" rx="11" ry="11" style="stroke:#181818;stroke-width:1;"/><path d="M3664.2656,234.8887 Q3664.4219,234.6699 3664.6094,234.5605 Q3664.7969,234.4512 3665.0156,234.4512 Q3665.3906,234.4512 3665.625,234.7168 Q3665.8594,234.9668 3665.8594,235.5762 L3665.8594,237.0293 Q3665.8594,237.6387 3665.625,237.9043 Q3665.3906,238.1699 3665.0156,238.1699 Q3664.6719,238.1699 3664.4688,237.9668 Q3664.2656,237.7793 3664.1563,237.2637 Q3664.1094,236.9043 3663.9219,236.7168 Q3663.5938,236.3418 3662.9844,236.123 Q3662.375,235.9043 3661.75,235.9043 Q3660.9844,235.9043 3660.3438,236.2324 Q3659.7188,236.5605 3659.2188,237.3105 Q3658.7344,238.0605 3658.7344,239.0918 L3658.7344,240.1855 Q3658.7344,241.4199 3659.625,242.248 Q3660.5156,243.0605 3662.1094,243.0605 Q3663.0469,243.0605 3663.7031,242.8105 Q3664.0938,242.6543 3664.5156,242.2168 Q3664.7813,241.9512 3664.9219,241.873 Q3665.0781,241.7949 3665.2813,241.7949 Q3665.6094,241.7949 3665.8594,242.0605 Q3666.125,242.3105 3666.125,242.6543 Q3666.125,242.998 3665.7813,243.4043 Q3665.2813,243.9824 3664.4844,244.3105 Q3663.4063,244.7637 3662.1094,244.7637 Q3660.5938,244.7637 3659.3906,244.1387 Q3658.4063,243.6387 3657.7188,242.5762 Q3657.0313,241.498 3657.0313,240.2168 L3657.0313,239.0605 Q3657.0313,237.7324 3657.6406,236.5918 Q3658.2656,235.4355 3659.3594,234.8262 Q3660.4531,234.2012 3661.6875,234.2012 Q3662.4219,234.2012 3663.0625,234.373 Q3663.7188,234.5293 3664.2656,234.8887 Z " fill="#000000"/><text fill="#000000" font-family="sans-serif" font-size="14" lengthAdjust="spacing" textLength="89.4893" x="3675.5" y="244.8105">JpaRepository</text><line style="stroke:#181818;stroke-width:0.5;" x1="3647.5" x2="3766.9893" y1="255.0137" y2="255.0137"/><line style="stroke:#181818;stroke-width:0.5;" x1="3647.5" x2="3766.9893" y1="263.0137" y2="263.0137"/></g><!--reverse link EmployeeService to EmployeeServiceImpl--><g class="link" data-entity-1="EmployeeService" data-entity-2="EmployeeServiceImpl" data-source-line="159" data-uid="lnk28" id="link_EmployeeService_EmployeeServiceImpl"><path codeLine="159" d="M4331,960.0137 C4331,993.7037 4331,1011.9337 4331,1046.7237" fill="none" id="EmployeeService-backto-EmployeeServiceImpl" style="stroke:#181818;stroke-width:1;stroke-dasharray:7,7;"/><polygon fill="none" points="4331,942.0137,4325,960.0137,4337,960.0137,4331,942.0137" style="stroke:#181818;stroke-width:1;"/></g><!--reverse link JpaRepository to EmployeeRepository--><g class="link" data-entity-1="JpaRepository" data-entity-2="EmployeeRepository" data-source-line="160" data-uid="lnk35" id="link_JpaRepository_EmployeeRepository"><path codeLine="160" d="M3707,289.2137 C3707,368.9637 3707,615.5937 3707,735.7437" fill="none" id="JpaRepository-backto-EmployeeRepository" style="stroke:#181818;stroke-width:1;"/><polygon fill="none" points="3707,271.2137,3701,289.2137,3713,289.2137,3707,271.2137" style="stroke:#181818;stroke-width:1;"/></g><!--reverse link RuntimeException to DuplicateEmailException--><g class="link" data-entity-1="RuntimeException" data-entity-2="DuplicateEmailException" data-source-line="161" data-uid="lnk37" id="link_RuntimeException_DuplicateEmailException"><path codeLine="161" d="M442.6325,838.5758 C422.0025,912.1858 363.09,1122.3437 342.49,1195.8537" fill="none" id="RuntimeException-backto-DuplicateEmailException" style="stroke:#181818;stroke-width:1;"/><polygon fill="none" points="447.49,821.2437,436.8551,836.9567,448.4099,840.195,447.49,821.2437" style="stroke:#181818;stroke-width:1;"/></g><!--reverse link RuntimeException to ResourceNotFoundException--><g class="link" data-entity-1="RuntimeException" data-entity-2="ResourceNotFoundException" data-source-line="162" data-uid="lnk38" id="link_RuntimeException_ResourceNotFoundException"><path codeLine="162" d="M465.3675,838.5758 C485.9975,912.1858 544.91,1122.3437 565.51,1195.8537" fill="none" id="RuntimeException-backto-ResourceNotFoundException" style="stroke:#181818;stroke-width:1;"/><polygon fill="none" points="460.51,821.2437,459.5901,840.195,471.1449,836.9567,460.51,821.2437" style="stroke:#181818;stroke-width:1;"/></g><!--SRC=[vLXDSviy4BxpApZIIS9CxXdFvCDlauxTwTITzj1v3mgiiLg1g2JQUDBmsxk8RuCm9BI7zcAR_NXMtjK-qk8n8gNjyT251nB63DpbUkDA4D-f1ov5YRl43xu7sEJ2Etoq7wqp-r4gegZtPAzu482mcVv2HUdm7c8kgU9YRqD7X7PhxWDRapX6vx3-RPqq46JC8matYjl4zqknK-k_9I0Lgb-XrufATT7ZkcZwIkV0h4HOZ8Su7yJeMtm0gXHVxUzyPyMZO3WUUbmoLg_QX2o126yt4Rpj99sD4ZGAJkyY1LZ2q-8n_p85JcAVA6W5xYRazFXQ3d7Uah2lm8tLVEVKjt6xm47uCjOx4i2ef7wYQeV6DC9zp2CdyoFt38On3d9tW36KoTCP0foFZV1aMHP56x4b7dGQN5HzwFPqwwELslUSCo2H3GzOENcrNuQ4CgSiGjekwCBUqiWlQdTWapykR3-96VLqgH4fKpbDVMRVoacEYULoDZ5uT9lvOW9gVVlFUhr4vl582SuOYEf_NbUYSInMq5v5OSKpBhUisZ9ILEsFqaOlQtLGZ8qociMU2ta-1TFKNZqDEMKzNTOR5zd8WbE2JsF5SGkRmf9JrZgLDJlOjqh56zpwYLoOkRJZPMIjyTmw1NCMhfqju2JkxUSZVSrnVSNTfH1SbC4r4o5Rsr9Nv1gjK93ZsdB7XTeaOKZ4VWrIOXXKjhWLCh1CaYcuHzWDReuFD0HRuGUMEOpBCxZZecyMxTXQPC3HElFAdA5_ZsoyfO7RkFTTQmd-_HFJRT0PPlSCxpNZzuGj7po8ipBTaiZFsRtReisaB-oTjhnf7KmLZ6EGlne9kmQru_wb298G8lMMgu-4KR-6Fw8V6-OA3yaQjFKq5WAB89KWk0S-KixqLgyHXvJFIyM7VGnhAaEYiDCCwUYr6HiEdtaYFC2S_iUJPdgCch7GnTxA5wiBTf2kOmPZ0xs620Jrj4uw3VUd4TJISrlF28OXfzlKhvabmaEZ91x2Y1xA2fKFCH4gAqKjWwmFi5Cr3j8z7XFLTLpgHrRSm0i7jD7dKjEgTKNCYGVDDZfyox0GeK4RyQPQMSky8QxHQw_y-jfqQ5zeArl5ynzZY0pPaLmH2RT0cDhTHNv65pnZdYU38vI5bAw1NhIp-U9UJkQ7jzECx9upDQSldvhJ6QRcTCBKd4wQcjDfKtCwszISldXgJcUScjCZKtCwmzIS_kwfEVqJK_CGku9cxAhvDAkkPcBLbP5LL_y8gpR8qNXG3t1htm5Oze6krClgyxTdVndAopW_al8ydzJlHZG-OfUT-ld_7CaQUpnT_7JToM-PBIu2LyPPmAt05F_WugkBj4VSBp5fli9w4vF6swkBdsTdqrvuMKCxCOcosQVUWBtmny_rMMCOs-CN]--></g></svg>